<?xml version="1.0" encoding="UTF-8"?>
<svg xmlns="http://www.w3.org/2000/svg" xmlns:xlink="http://www.w3.org/1999/xlink" viewBox="0 0 73.02 40.97">
  <defs>
    <style>
      .cls-1 {
        fill: none;
      }

      .cls-2 {
        fill: #f4edd9;
      }

      .cls-3 {
        fill: #fcf6bb;
      }

      .cls-4 {
        fill: #26231e;
      }

      .cls-5, .cls-6 {
        fill: #f18800;
      }

      .cls-7 {
        fill: #f7a80a;
      }

      .cls-6 {
        mix-blend-mode: multiply;
        opacity: .5;
      }

      .cls-8 {
        fill: #871811;
      }

      .cls-9 {
        fill: #f5aaa7;
      }

      .cls-10 {
        fill: #f6efdd;
      }

      .cls-11 {
        isolation: isolate;
      }

      .cls-12 {
        fill: #df0a14;
      }

      .cls-13 {
        fill: #503316;
      }

      .cls-14 {
        fill: #fff;
      }

      .cls-15 {
        fill: #cd734c;
      }

      .cls-16, .cls-17, .cls-18 {
        mix-blend-mode: screen;
      }

      .cls-19 {
        opacity: .4;
      }

      .cls-20 {
        fill: #e74210;
      }

      .cls-21 {
        fill: #842612;
      }

      .cls-22 {
        fill: #462316;
      }

      .cls-23 {
        fill: #23632c;
      }

      .cls-24 {
        fill: #fdf6c3;
      }

      .cls-25 {
        clip-path: url(#clippath);
      }

      .cls-17 {
        opacity: .8;
      }

      .cls-18 {
        opacity: .6;
      }
    </style>
    <clipPath id="clippath">
      <rect class="cls-1" x=".8" y=".09" width="31.42" height="37"/>
    </clipPath>
  </defs>
  <g class="cls-11">
    <g id="katman_2" data-name="katman 2">
      <g id="Layer_1" data-name="Layer 1">
        <g>
          <path class="cls-23" d="M5.57,32.86v-10.49c0-4.48,3.9-8.1,8.71-8.1h56.96c.05,0,.09.04.09.09v18.72c0,4.36-3.79,7.89-8.47,7.89H14.28c-4.81,0-8.71-3.63-8.71-8.1Z"/>
          <g>
            <path class="cls-23" d="M14.7,38.22v.07s-2.82-.65-2.82-.65c-.77-.18-1.44-.66-1.87-1.33-.66-.59-1.06-1.42-1.11-2.33-.05-.98.32-1.9,1.03-2.6-.31-.13-.59-.3-.86-.5-.37-.27-.68-.6-.92-.98-.44-.24-.84-.51-1.22-.81l-.84,1.21-1.5-3.27c-.03-.06-.52-1.14-.73-2.41-.07-.43-.09-.84-.1-1.18-.01-.46,0-.92.04-1.37-.8-.88-1.45-1.89-1.99-3.09,0,0,0-.01-.01-.02-.01-.02-.02-.04-.04-.05-.08-.11-.13-.19-.19-.29-.64-1.03-1.09-2.16-1.34-3.36-.04-.2-.07-.4-.1-.59l-.02-.1-.03-.12-.03-.27-.05-1.33.05-.2v-.1c.03-.21.05-.42.08-.64h0c.08-.55.22-1.26.64-1.97.34-.58.9-1.04,1.56-1.31.16-.27.36-.52.6-.77.5-.51,1.15-.8,1.85-.82h.02s.03,0,.03,0c.07,0,.14,0,.21,0,.35-.18.75-.29,1.15-.3h.02s.03,0,.03,0c.54,0,1.02.13,1.48.39.58.34,1.09.76,1.51,1.26.07-.13.15-.25.24-.37.25-.99.64-1.78,1.19-2.45.35-.43.76-.76,1.2-1,.13-.41.29-.82.5-1.21.67-1.27,1.67-2.23,2.98-2.83.18-.08.37-.16.59-.23.11-.04.24-.08.36-.11l.35-.12.35-.04.93-.03.42.11c.16.04.34.09.55.17,1.07.44,1.79,1.35,1.96,2.47.07-.08.14-.15.21-.22h0c.45-.41,1.03-.65,1.64-.67h.02s.03,0,.03,0c.57,0,1.08.16,1.53.47.17.12.46.32.73.6.37.38.68.81.94,1.26.34.03.66.08.99.16,1.22.29,2.23.95,2.92,1.91.08.11.15.22.24.36.01.02.03.04.04.05.47.43.79.89,1.03,1.26.09.15.19.3.27.46.05.09.13.25.21.46.12.18.22.37.29.56.12.29.18.6.18.92v.03c.04.63-.17,1.22-.61,1.69-.43.46-1.02.72-1.67.74h-.02s-.03,0-.03,0c-.36,0-.68-.06-1-.19-.08-.03-.21-.05-.38-.05h-.1c-.42.02-.79.12-1.17.29,0,0-.17.16-.17.16l-.26.23c-.26.22-.52.45-.76.67-.03.04-.08.11-.12.16l-.06.09c-.36.5-.61.92-.78,1.31l-.05.13c-.05.11-.1.25-.17.39-.24.49-.6.88-1.03,1.13.85.52,1.55,1.19,2.08,2,.47.71.77,1.49.94,2.39.2,1.09.16,2.08-.11,3.03-.24.84-.67,1.62-1.26,2.34-.03.04-.06.07-.09.1.08.27.12.56.12.87.02.89-.29,1.68-.9,2.28-.55.54-1.24.88-2.01.98-.3.11-.62.18-.93.19.33,1,.18,2.06-.43,2.99-.48.73-1.22,1.25-2.13,1.49,0,.01-.01.02-.02.03l.48,2.09-2.89-.03v.76s-1.88-.43-1.88-.43Z"/>
            <path class="cls-14" d="M14.04,36.79c-.22-.05-.43-.15-.62-.28v.21s-1.25-.29-1.25-.29c-.47-.11-.87-.42-1.11-.85l-.04-.07c-.5-.37-.81-.94-.84-1.59-.04-.72.27-1.37.86-1.83l.19-.2c.14-.14.24-.25.36-.35.09-.2.18-.4.27-.59-.07-.04-.15-.08-.22-.14-.13-.09-.24-.2-.34-.33-.55-.08-1.04-.28-1.46-.59-.33-.24-.58-.55-.75-.91-.6-.29-1.13-.65-1.59-1.06-.28-.25-.53-.52-.76-.81l-.43.62-.55-1.21s-.45-.99-.63-2.1c-.06-.35-.08-.72-.09-1.02-.02-.61.02-1.2.11-1.76-.9-.88-1.61-1.93-2.18-3.21-.03-.08-.09-.15-.14-.22-.06-.09-.11-.17-.16-.24-.56-.91-.96-1.9-1.18-2.96-.04-.18-.06-.36-.09-.53l-.03-.19-.03-.09v-.12s-.05-1.13-.05-1.13l.03-.12.02-.19c.02-.2.04-.39.07-.59.07-.46.18-1,.48-1.52.27-.45.78-.79,1.34-.9.06-.12.12-.24.19-.36.11-.2.26-.39.45-.59.27-.27.6-.42.95-.43h0c.18,0,.35.03.5.08.25-.23.56-.36.9-.38h0c.31,0,.57.07.82.22.73.42,1.3,1.02,1.7,1.79.1.19.16.38.19.57.04,0,.28,0,.28,0,.18,0,.36.01.53.03.19-.81.48-1.45.88-1.99.01-.02.04-.05.06-.15.21-.87.52-1.53.98-2.09.37-.45.8-.74,1.29-.86.11-.54.29-1.06.55-1.56.53-1.02,1.34-1.78,2.39-2.27.17-.08.34-.14.47-.18.09-.03.2-.07.31-.1l.25-.08.16-.02.68-.02.23.06c.13.03.25.07.38.12.7.29,1.13.88,1.2,1.63.03.39-.03.77-.18,1.14.02.02.05.05.07.08.53.61.54,1.43.01,2.06-.01.02-.03.03-.04.05.15.23.27.51.32.84.07.43-.05.86-.33,1.19-.08.1-.17.19-.28.26.03.16.05.31.06.47.14-.19.3-.36.44-.53l.23-.26c.06-.08.08-.1.08-.11.13-.76.47-1.51,1.06-2.31.29-.4.48-.76.59-1.13.01-.04.02-.09.03-.14-.18-.66.11-1.04.31-1.22.22-.2.5-.31.79-.32h0c.3,0,.55.08.77.23.15.1.35.25.54.44.45.48.81,1.03,1.05,1.64.06,0,.13,0,.19,0,.46,0,.9.05,1.33.15.92.22,1.65.69,2.17,1.41.08.11.14.21.23.33.04.05.08.11.11.17.42.34.7.74.92,1.1.09.14.16.26.23.39.05.09.13.24.17.43.1.12.2.27.27.47.07.15.1.32.09.5v.08c.02.29-.07.56-.27.77-.2.21-.46.33-.75.34h0c-.19,0-.34-.03-.49-.09-.25-.1-.54-.15-.9-.15h-.13c-.68.03-1.29.2-1.87.51-.05.03-.1.08-.15.13l-.15.14-.25.22c-.28.24-.56.48-.83.74-.08.07-.17.2-.26.33l-.06.08c-.41.57-.7,1.06-.91,1.54l-.06.14c-.05.11-.09.22-.14.33-.31.63-.81.74-1.08.75,0,0-.11,0-.15,0-.14.31-.28.62-.42.93-.03.07-.06.22-.08.35,0,0-.02.12-.02.12.22.08.44.17.66.27.93.45,1.68,1.09,2.21,1.9.37.57.62,1.21.76,1.94.17.9.14,1.71-.09,2.48-.2.68-.54,1.32-1.03,1.9-.18.22-.38.43-.59.62.22.32.34.71.35,1.16.01.56-.17,1.02-.54,1.39-.38.37-.86.59-1.39.63-.01,0-.03,0-.04.01-.21.09-.45.15-.67.16h-.02c-.1,0-.19,0-.26-.02-.12.05-.23.07-.3.09-.02,0-.04.01-.05.02-.09.13-.22.27-.4.38l-.18.21s-.05.06-.08.09c-.05.12-.08.24-.09.36.07.12.16.27.23.45.23.66.14,1.35-.28,1.98-.25.39-.76.88-1.73,1.02-.07,0-.14.02-.21.02-.07.26-.21.54-.45.82,0,.06,0,.11-.02.17l.22.99h-1.28c-.36-.02-.73-.14-1.04-.36-.07-.01-.13-.02-.2-.04,0,0-.01,0-.02,0l-.02.2v.62s-1.25-.29-1.25-.29Z"/>
            <g class="cls-25">
              <path class="cls-8" d="M30.34,10.41c.01-.07,0-.15-.05-.24,0,0,0-.01,0-.02-.04-.13-.13-.23-.2-.31-.08-.09-.09-.12-.09-.15,0-.13-.06-.24-.1-.32v-.02c-.07-.12-.15-.23-.21-.34-.21-.34-.46-.7-.84-.98,0,0-.01-.01-.02-.02-.03-.04-.05-.08-.08-.12-.03-.04-.06-.09-.09-.14-.07-.11-.14-.21-.2-.3-.41-.57-.99-.94-1.73-1.12-.43-.1-.86-.14-1.34-.13-.17,0-.35.02-.53.04-.2-.74-.56-1.38-1.07-1.92-.13-.14-.29-.25-.43-.35-.09-.06-.19-.1-.3-.09-.11,0-.21.05-.3.12-.2.18-.13.42-.1.5v.02s.04.1.04.12c-.01.16-.03.28-.07.39-.13.44-.36.88-.7,1.35-.52.71-.82,1.37-.95,2.06-.02.13-.11.26-.22.4-.08.09-.16.19-.24.27-.17.19-.34.39-.5.61-.4.55-.75,1.15-1.08,1.73-.01-.06-.02-.13-.04-.19-.07-.32-.15-.65-.23-.97h0c-.03-.14-.07-.28-.1-.42.19-.22.17-.48.16-.65-.02-.3-.08-.61-.19-.94,0,0,0,0,.01,0,.23-.02.43-.12.57-.29.14-.17.2-.4.17-.63-.07-.47-.37-.78-.62-1.01-.01,0-.02-.02-.03-.03.18-.09.37-.22.54-.42.3-.35.3-.78,0-1.12-.14-.16-.31-.26-.48-.34.32-.43.45-.85.41-1.29-.04-.49-.3-.84-.74-1.02-.09-.04-.18-.06-.27-.08-.03,0-.07-.02-.1-.03h-.04s-.56,0-.56,0h-.04c-.06.03-.13.06-.19.07-.09.02-.18.05-.27.09-.11.04-.25.08-.39.15-.89.41-1.58,1.06-2.04,1.94-.31.6-.5,1.24-.56,1.89-.05,0-.1,0-.15,0-.47.02-.86.23-1.21.66-.39.47-.65,1.04-.84,1.8-.04.17-.1.29-.18.41-.37.5-.62,1.09-.79,1.86-.03.16,0,.3.09.41.08.1.2.15.35.16-.19.66-.47,1.33-.87,2.09-.14.27-.32.46-.56.62-.24.16-.45.34-.65.57.23-.32.41-.67.53-1.07.07-.22.22-.45.37-.66l.03-.04c.16-.24.33-.47.51-.69h0c.07-.1.15-.2.23-.3.01-.01.02-.03.03-.05l.02-.03.18-.26-.3-.12c-.4-.16-.84-.23-1.34-.21-.07,0-.14,0-.21.01-.3.02-.58.09-.84.2.04-.12.08-.24.12-.36.09-.28.07-.55-.07-.82-.33-.64-.81-1.14-1.41-1.49-.14-.08-.27-.12-.41-.11-.13,0-.37.06-.54.35-.06.11-.12.22-.16.33-.11-.11-.22-.2-.32-.27-.13-.08-.26-.12-.39-.12-.16,0-.3.07-.43.2-.15.15-.26.29-.34.44-.13.23-.25.48-.36.71-.05,0-.11-.01-.17,0-.41.01-.82.25-1.01.56-.24.41-.33.87-.39,1.26-.03.19-.04.37-.06.55,0,.08-.02.17-.02.25,0,0,0,0,0,0,0,0,0,.02,0,.03v.03s.03,1.03.03,1.03v.03s.01.02.02.03c0,0,0,0,0,.01.01.08.02.16.04.23.02.16.05.33.08.49.2.98.57,1.9,1.09,2.73.04.07.09.14.14.21.08.12.16.23.21.34.59,1.32,1.34,2.38,2.3,3.24-.13.63-.19,1.3-.17,1.99.01.34.03.64.08.93.17,1.02.58,1.92.58,1.92l.21-.3s0,0,0-.01c.03-.03.07-.08.09-.16.32.61.74,1.16,1.26,1.63.46.41,1,.76,1.62,1.04.04.07.08.13.12.2.12.28.3.51.55.69.41.3.91.46,1.47.48.02.06.05.13.09.18.06.1.14.19.24.26.16.12.32.16.46.19.06.02.12.03.18.05.01,0,.02,0,.04.01.06.03.12.05.18.08-.09.13-.19.27-.27.41-.15.27-.28.55-.4.81-.06.13-.12.21-.19.28-.1.09-.2.19-.29.28-.04.04-.07.07-.11.11-.03.02-.05.05-.07.07-.04.04-.08.08-.11.11-.41.32-.61.74-.58,1.22.03.47.25.85.64,1.12.03.02.06.04.1.06,0,.05.02.1.04.15h0s0,.02,0,.02c.14.25.37.43.62.48l.32.07v-.28c.07-.08.09-.19.1-.26,0,0,0-.01,0-.02,0,0,.01,0,.02,0,.05-.01.11-.03.18-.05.14.15.31.27.52.35.02,0,.04.02.05.02.15.27.41.46.68.52l.32.07v-.17s.05,0,.05,0l.02-.22s0-.05,0-.07c0-.04,0-.09.01-.13,0,0,0,0,0,0,.14-.05.27-.12.4-.21.15.1.31.16.49.21.1.03.21.04.31.04.21.2.48.32.74.32h.33s-.06-.27-.06-.27c.03-.06.05-.13.04-.21,0-.1,0-.19.03-.26.01-.01.03-.03.05-.05.03-.02.06-.05.09-.09.3-.34.41-.71.3-1.1,0-.02-.01-.04-.02-.05.19.06.39.08.61.08.08,0,.17-.01.25-.02.55-.07.95-.3,1.2-.68.29-.45.36-.91.2-1.36-.04-.12-.11-.23-.17-.32-.03-.04-.05-.09-.08-.13-.01-.02-.01-.03-.02-.03-.03-.32.03-.64.19-.96.01-.02.04-.05.07-.09.02-.02.05-.05.07-.08.03-.03.05-.06.08-.09.05-.06.1-.12.15-.18,0,0,.01-.02.02-.02,0,0,.01-.02.02-.02.1-.05.24-.13.31-.3,0,0,.01-.01.02-.02.07-.05.16-.1.23-.15.03-.02.06-.03.11-.05.03,0,.06-.02.09-.02.08-.02.18-.04.27-.09.02,0,.04-.02.05-.03.03-.02.07-.04.1-.05l.03.04.1.02c.06.01.12.02.19.02.14,0,.29-.04.43-.11.04,0,.07-.02.1-.03.03,0,.07-.02.08-.02h0c.38-.01.71-.15.98-.42.23-.23.33-.5.32-.86-.01-.56-.25-.96-.73-1.2.45-.32.82-.66,1.14-1.05.42-.51.72-1.06.89-1.64.19-.65.21-1.36.07-2.15-.12-.64-.33-1.19-.65-1.68-.46-.7-1.1-1.25-1.91-1.64-.7-.34-1.44-.5-2.18-.48-.19,0-.38.02-.57.05.15-.23.31-.46.49-.68.1.14.21.28.39.39.1.06.21.09.32.09.24,0,.44-.18.48-.44,0-.03.01-.07.02-.1.03-.18.06-.36.13-.51.26-.59.53-1.18.79-1.74.04.21.16.33.36.36.03,0,.06,0,.09,0,.26,0,.37-.23.42-.32h0c.05-.11.09-.2.12-.3.02-.05.04-.11.07-.16.23-.52.54-1.05.99-1.67.02-.02.05-.07.05-.07.11-.15.22-.31.35-.43.27-.26.57-.51.85-.76.08-.07.16-.14.25-.21.05-.04.09-.08.13-.12.11-.1.21-.19.31-.25.68-.36,1.41-.56,2.15-.59.02,0,.04,0,.06,0,.53-.02.97.05,1.35.21.06.02.11.03.17.03.09,0,.16-.04.22-.1.06-.06.09-.15.08-.24,0-.04,0-.08,0-.13h0ZM8.7,15.31s-.02-.04-.03-.06c.09-.08.17-.16.24-.25-.07.1-.14.2-.21.31ZM20.27,23.87c.01-.09.02-.18.03-.26.09.11.17.22.23.33-.09-.03-.18-.05-.27-.07Z"/>
              <path class="cls-14" d="M29.5,9.65c.06.04-.73-1.31-.91-1.43,0-.02,0-.04-.01-.06-.04-.11-.46-.68-.63-.84-.27-.27-.61-.46-.97-.58-.41-.14-.87-.21-1.31-.19-.01,0-.05,0-.12.02-.26-.06-.63-.02-.96.09-.31-1.8-1.67-2.71-1.47-2.37.23.41-.16,1.44-.92,2.45-.15.2-.24.4-.31.59-.4.39-.43.87-.46,1.21,0,.1-.2.42-.3.51-.66.59-1.53,2.03-2.41,3.7-.18-2.11-.77-4.35-2.2-5.84-.3-.31-.65-.56-1.09-.65-.3-.06-.61-.03-.87.14-.18.13-.18.26-.39.18-.47-.18-.93,0-1.25.35-.87.96-.98,2.48-1.17,3.68-.22,1.41-.76,2.77-1.6,3.95-.86.34-1.66,1.51-1.66,1.51,0,0-.48-1.13-.25-1.06.28.09.82-1.02,1.02-1.4.42-.81,1.08-1.67,1.08-1.67l-.87-.2c-.87-.2-1.81.59-1.81.59l.4-1.38-.12-.46-1.43-1.32-.33.44-.3.55-.67-.71-.31.33-.78,1.04-.82.19-.6,1.65.06,2.22.97,2.28,1.15,2.09,1.75,1.95c-.27.87.09,3.66.13,3.55.03-.11.07-.21.11-.3.45,1.82,1.82,3.12,3.42,3.83.37.83,1.08,1.34,2.2,1.3.68-.02,1.16-.28,1.44-.65.09,0,.18,0,.28,0,.52-.02,1.04-.14,1.55-.33.23.08.49.11.75.1,1.06-.04,1.9-.81,1.87-1.72,0-.06,0-.11-.02-.17,1.29-1.4,2-3.28,1.45-4.96-.3-.9-.84-1.2-.99-2.13-.03-.18-.06-.36-.08-.54.32-.76.89-1.62,1.58-2.48.1.53.7,1.2.69.72-.02-.45.87-2.17,1.26-2.9.14-.14.27-.28.41-.42-.02.82.02,1.61.34.74.31-.83.94-1.77,1.44-2.45.81-.74,1.45-1.29,1.71-1.51,2.25-1.16,3.53-.34,3.53-.34,0,0,.41-.31-.2-.88Z"/>
              <path class="cls-12" d="M24.42,21.19c-.67-1.86-3.21-3.55-5.73-2.19.01.01.07.5.12.73.02.07.03.14.04.21.09.08.17.18.19.29.05.22.13.44.23.64.02.04.04.07.05.11,1.75-.77,3.87.47,4.1,2.26.2,1.58-1.04,3.02-2.46,4.25,2.47-1.06,4.64-3,3.45-6.3Z"/>
              <path class="cls-12" d="M22.53,22.71c-.57-1.26-1.91-1.95-3.2-1.73.15.28.31.55.45.83.11.21.22.43.3.66.06.18.11.35.14.54.37.29.68.68.89,1.14.34.76.33,1.58.04,2.28,1.42-.61,2.04-2.26,1.39-3.71Z"/>
              <path class="cls-5" d="M12.89,32.21s.76-1.71,1.51-2.3c.76-.59,1.36-1.31,1.96-.85s.1.92-.02,1.15c-.36.69-.21,1.66-.15,2.22s-3.32-.22-3.32-.22Z"/>
              <path class="cls-5" d="M13.84,31.12c-.52-.17-.79.69-.95,1.09-.15.39-.49.43-.73.87-.36.19-.59.56-.58.98.02.59.54,1.05,1.15,1.03.61-.02,1.09-.52,1.07-1.11,0-.05,0-.1-.02-.14.03-.02.06-.05.08-.09.33-.45.02-1.03.19-1.49.14-.41.38-.97-.23-1.15Z"/>
              <path class="cls-5" d="M15.15,33.84c.05-.07.08-.15.07-.25-.03-.25-.14-.37-.06-.62.06-.25.06-.39.01-.64-.06-.23.04-.52-.08-.73-.14-.26-.58-.23-.8-.06-.2.15-.15.42-.27.6s-.32.28-.3.51.1.34,0,.57c-.07.21-.08.36-.02.53-.27.18-.45.48-.43.8.02.53.52.95,1.13.93.6-.02,1.08-.47,1.06-1,0-.25-.13-.47-.31-.64Z"/>
              <path class="cls-5" d="M15.43,29.73c-.34-.33-1.05-.2-1.21-.32-.15-.12-.15-.28-.28-.39-.08-.06-.17-.09-.28-.11-.01.05-.03.1-.06.15-.06.1-.13.18-.23.24-.05.02-.1.05-.16.07-.27.11-.57.13-.86.14,0,0,0,0,0,.01l-.03.03c-.02.22.11.27.3.4.18.13.4.14.6.22.19.08.4.32.52.46.39.47,1.2.41,1.39.31.51-.1.72-.81.3-1.22Z"/>
              <path class="cls-5" d="M16.72,33.17c-.16-.21-.42-.37-.5-.64-.04-.14-.02-.29-.02-.43,0-.13-.06-.24-.12-.36-.06-.11-.13-.22-.23-.3-.09-.07-.25-.09-.36-.09-.16,0-.3.06-.38.19-.19.27-.17.64-.19.95-.02.55-.11,1.19-.01,1.74.01.06.07.28.09.31.36.94,1.18.97,1.56.81.36-.15.71-.53.69-.92,0-.22-.09-.43-.18-.63-.1-.22-.21-.43-.36-.62,0-.01.04.05,0,0Z"/>
              <path class="cls-22" d="M16.85,35.63c-.02-.11.01-.25.06-.35.03-.06.03-.08,0-.14-.02-.04-.04-.08-.08-.11-.14-.13-.29-.06-.52-.04-.2.01-.16.31-.05.46.15.16.37.29.6.29,0-.03-.01-.07-.01-.11,0-.04,0,.04,0,0Z"/>
              <path class="cls-22" d="M14.69,35.21s-.02-.03-.04-.05c-.2.03-.64-.17-.61.03-.04.09-.04.2,0,.3.11.19.3.36.52.41,0-.04,0-.07.01-.11,0-.11.07-.24.14-.33.04-.05.05-.07.03-.13,0-.04-.03-.09-.05-.12Z"/>
              <path class="cls-22" d="M12.8,34.94s-.02-.03-.03-.04c-.18.03-.56-.15-.53.03-.04.08-.04.17,0,.26.09.16.26.31.45.36,0-.03,0-.06,0-.09,0-.09.06-.21.12-.28.03-.04.04-.06.03-.12,0-.04-.02-.07-.04-.11Z"/>
              <path class="cls-5" d="M22.32,27.04c-.49.02-1.01.28-1.09.72-.2.05-.39.17-.52.29-.44.4-.94.75-1.35,1.17-.22.22-.44.58-.39.9.02.13,0,.09.11.16.1.07.23.12.35.17.1-.18.35-.24.45-.42.04-.08.02-.13.1-.19.06-.04.15-.02.2-.07.06-.05.01-.08.05-.16.04-.07.08-.06.14-.1.13-.06.31-.14.31-.3.16.1.54.03.53-.18.14.09.28.04.29-.11.14.02.26.08.39,0,0,0,0,0,0,0,.15.05.33.07.55.04.53-.08.92-.51.9-1.03-.02-.52-.47-.93-1.01-.91Z"/>
              <path class="cls-5" d="M17.95,27.6c.02.6-.46,1.11-1.07,1.13-.61.02-1.13-.45-1.15-1.05-.02-.6.46-1.11,1.07-1.13.61-.02,1.13.45,1.15,1.05Z"/>
              <path class="cls-5" d="M18.29,28.06c.02.5-.38.92-.89.93-.51.02-.94-.37-.95-.87-.02-.5.38-.92.89-.93.51-.02.94.37.95.87Z"/>
              <path class="cls-5" d="M22.54,26.58c-.02-.66-.58-1.04-1.25-1.02-.58.02-1.05.34-1.15.85-.04,0-.09.01-.14.03-.33.1-.54.49-.69.78-.15.3-.21.61-.29.92-.07.26-.2.52-.3.77-.13.33-.39.64-.39,1,0,.23.07.28.28.34.2.06.34.14.5-.04.08-.09.1-.2.16-.29.06-.07.14-.11.22-.16.14-.09.19-.22.26-.38.04-.09.01-.08.09-.15.05-.04.09-.07.14-.11.13-.13.21-.17.16-.35.24-.02.65-.06.67-.35.13,0,.27-.02.23-.2.28-.01.33-.26.22-.35.85.26,1.3-.67,1.28-1.27Z"/>
              <path class="cls-5" d="M19.92,24.3c-.33.01-.82.18-1.04.39-.7.47-.97,1.67-1.04,1.88-.15.43-.29.59-.35.8-.57,2.11-.26,2.76-.26,2.76,0,0,1.32.55,1.59-.89.03-.15.02-.72.13-.8.11-.08.25-.32.39-.38s.09-.53.23-.54c.28,0,.24-.38.31-.4.26-.06.14-.33.14-.33.71-.02,1.27-.6,1.25-1.29-.03-.69-.62-1.22-1.34-1.2Z"/>
              <path class="cls-5" d="M16.95,32.59s-.19-3.7.42-4.5c.61-.8,2.71,1.59,2.71,1.59,0,0-.83.71-.85,1.73s.56,1.05.08,1.74c-.36.53-.8.69-1.23.61-1.15-.22-1.13-1.17-1.13-1.17Z"/>
              <path class="cls-5" d="M19.55,32.57c.03.71-.52,1.17-1.3,1.2-.78.03-1.2-.41-1.23-1.11-.03-.71.55-1.06,1.33-1.09.78-.03,1.17.3,1.2,1Z"/>
              <path class="cls-13" d="M19.25,27.3c.12-.28,0-.55.08-.81.09-.26.45-.29.65-.1.43.4-.32.93-.71.93"/>
              <path class="cls-13" d="M20.6,28.17c.11-.27,0-.53.08-.78.08-.25.43-.28.62-.09.41.38-.3.89-.69.89"/>
              <path class="cls-13" d="M21.59,29.15c.12-.16.09-.35.18-.51.1-.15.33-.12.43.03.21.32-.35.55-.6.48"/>
              <path class="cls-13" d="M18.73,32.25c.06,0,.11,0,.17.02.5-.07.07-.9-.08-1.08-.04.41-.55.88-.09,1.06Z"/>
              <path class="cls-12" d="M18.14,6.39c-.14-.1-.29-.17-.43-.23.77-.14,1.3-.53,1.29-.9-.01-.31-.44-.57-1.05-.69,1.42-1.18.8-2.96-1.31-1.94-1.94.94-2.37,2.85-2.45,3.9,0,0,0,0,.01-.01.13-.11.26-.21.44-.24.21-.04.32-.04.53-.02.07,0,.15.03.22.05.13.05.26.09.39.16.21.11.41.25.6.39.14.11.28.22.41.35.13.13.26.26.37.41.07.1.13.2.19.31.08.14.17.28.25.42.24.43.46.88.63,1.34.24,0,.19-.52.13-.79-.11-.47-.22-.88-.43-1.21.97.59,1.53-.43.21-1.3Z"/>
              <path class="cls-14" d="M13.79,8.21c-.23.55-.63.91-.9.8-.27-.1-.31-.63-.08-1.18s.63-.91.9-.8c.27.1.31.63.08,1.18Z"/>
              <path class="cls-24" d="M13.53,7.19c.23.07.36.31.38.61.07-.38,0-.69-.21-.77-.14-.06-.33.02-.5.18.11-.05.22-.06.32-.03Z"/>
              <path class="cls-12" d="M14.55,11.13l.14-.58c.81,1.45-.16,3.49-.76,4.42-.44.69-1.12.51-1.2-.11-.12-.97.6-1.2,1.24-1.98.41-.5.52-1.19.58-1.74Z"/>
              <path class="cls-12" d="M15.05,11.01l.88-.57c-1.07,1.28-.17,3.73-.81,4.73-.47.74-1.33.61-1.45-.05-.19-.93.29-1.58.97-2.42.43-.53.34-1.1.41-1.69Z"/>
              <path class="cls-12" d="M12.78,8.34s.37-.56,1.41.31c1.06.88,1.26,1.04,1.67.8.22-.13.82.01.39.65-.45.66-1.13,1.54-1.52,2.13-.39.59-1.95-3.88-1.95-3.88Z"/>
              <path class="cls-21" d="M13,10.59s.52,2.14.83,2.13c.31-.01,2.14-2.76,2.14-2.76l-.41-.05-2.56.68Z"/>
              <path class="cls-12" d="M14.89,10.31c-.29.11-.71.27-.71.27,0,0-.35,1.08-.11.93.14-.08.43-.88.86-1.2h-.05Z"/>
              <path class="cls-7" d="M11.08,10.93s.22-1.1.82-1.84c.42-.52.9-.95,1.37-.83.6.15,1.08,1.09,1.87,1.36.89.3.75-.24,1.05-.14s-.89.84-1.75,1.09c-1.07.31-1.9.16-2.48.32-.32.08-.64.18-.7.19-.27.04-.18-.15-.18-.15Z"/>
              <path class="cls-7" d="M16.09,9.51c-.13.06-.82,1.1-1.04,1.42-.48.71-.92,1.63-1.22,1.61-.1,0-.42-.7-.58-1.84,0,0-.69-.09-.6.02.73.87.66,2.32,1.15,2.33.58.02.96-1.05,1.64-2.04.31-.45.86-1.13.9-1.24.08-.24-.13-.33-.25-.27Z"/>
              <path class="cls-14" d="M15.76,9.36c-.49.14-1.05-.32-1.19-.98s.1-1.33.6-1.42c.77-.14,1.92,2.02.59,2.4Z"/>
              <path class="cls-4" d="M16.07,8.09c.06.22-.04.43-.21.48-.17.04-.36-.1-.42-.32-.06-.22.04-.43.21-.48.17-.04.36.1.42.32Z"/>
              <path class="cls-8" d="M13.29,8.19c.13,0,.21-.08.31-.03.02-.03.09-.14.1-.18.07-.18.03-.36-.08-.4s-.26.07-.33.25c-.02.06-.08.32-.08.37.01,0,.07-.02.08-.02Z"/>
              <path class="cls-8" d="M16.14,8.16c.07.27-.04.52-.25.58s-.44-.12-.51-.39c-.07-.27.04-.52.25-.58.21-.05.44.12.51.39Z"/>
              <polygon class="cls-2" points="6.62 21.03 6.62 21.03 6.55 20.91 6.52 20.95 6.62 21.03"/>
              <path class="cls-2" d="M7.11,20.17l-.91-.36,1.39-1.96.05-.82-.85-.67.75-.62-.33-.37s.93-.44,1.13-1.13c.48-1.65,1.34-2.06.96-2.11-.37-.05-1.5.41-2.17,1.63-.2.36-.66,0-.66,0l-.67,1.39s.67.49.13,1.06-1.92.36-1.92.36l2.54,4.35.56-.74Z"/>
              <path class="cls-2" d="M17.63,10.75l.59,2.16s-2.78,6.28-2.78,6.13-1.02-1.96-1.02-1.96c0,0,2.08-1.8,2.4-3.5s.8-2.83.8-2.83Z"/>
              <path class="cls-2" d="M18.27,20.63s0,2.16-2.14,3.19c-.59.28-1.12.9-1.42,1.32.29-.11.58-.25.88-.31.56-.11,1.18-.15,1.72.07.16.04.32.11.45.2.01,0,.02,0,.02,0,0,0,.75-.21,1.23-1.18.48-.98-.75-3.3-.75-3.3Z"/>
              <path class="cls-2" d="M21.85,9.72s.53,1.29,1.5,1.54,1.02.51,1.02.51l-1.39,1.9-.43-.31s-1.44,1.65-1.66,2.37c-.21.72-1.02.72-1.02.72l-1.82,3.19s1.39-4.02,1.66-5.05c.27-1.03,2.14-4.89,2.14-4.89Z"/>
              <path class="cls-2" d="M8.14,26.16s2.02.85,3.65.93c1.68.08,2.08-.46,2.08-.46,0,0-.16,1.24.6,1.62.5.26-1.68.39-3.17-.12-1.48-.5-3.17-1.97-3.17-1.97Z"/>
              <path class="cls-2" d="M15.15,26.19s-.16.41.27.46c.43.05-.37.72-.03,1.11.35.39-.69-.39-.59-.98s.35-.59.35-.59Z"/>
              <g class="cls-18">
                <path class="cls-10" d="M23.22,25.42s0-.04.01-.07c0-.02.02-.04.04-.07.02-.03.04-.06.06-.09.09-.13.22-.31.34-.55.12-.24.23-.54.3-.89.07-.35.09-.74.06-1.15-.02-.2-.05-.45-.12-.73-.02-.07-.04-.14-.06-.21-.02-.07-.05-.15-.07-.22-.05-.15-.12-.3-.2-.45-.15-.3-.35-.61-.59-.88-.24-.28-.52-.52-.83-.71-.15-.1-.31-.18-.47-.25-.16-.07-.32-.12-.48-.17-.16-.04-.31-.07-.46-.1-.15-.02-.29-.03-.41-.04-.06,0-.13,0-.18,0-.06,0-.11,0-.17,0-.05,0-.1,0-.15,0-.05,0-.09,0-.12,0-.08,0-.14.01-.18.02-.04,0-.07,0-.08,0-.02,0,.05-.03.18-.06.13-.03.34-.07.6-.08.13,0,.27-.01.43,0,.15,0,.32.02.49.05.34.06.71.18,1.06.36.35.18.69.43.97.72.29.29.52.62.71.95.18.33.31.67.4.97,0,.02.01.04.02.06,0,.02,0,.04.01.06,0,.04.02.07.03.11.02.07.03.14.04.21.02.14.04.26.05.37.04.45,0,.87-.1,1.25-.1.38-.25.69-.41.94-.16.25-.33.41-.46.52-.03.03-.06.05-.09.06-.03.02-.05.03-.07.04-.04.02-.07.02-.08.01Z"/>
              </g>
              <g class="cls-19">
                <path class="cls-10" d="M20.38,25.96s-.01-.14.02-.26c.01-.06.03-.12.02-.19,0-.07-.02-.14-.05-.22,0-.02-.02-.04-.03-.06-.01-.02-.03-.05-.04-.08-.03-.05-.08-.11-.13-.16-.11-.11-.27-.2-.44-.24-.08-.02-.17-.02-.25-.01-.02,0-.04,0-.06,0,0,0-.02,0-.03,0,0,0-.02,0-.03,0-.02,0-.03,0-.05.01-.02,0-.03.01-.05.02-.12.05-.19.1-.21.09,0,0,0-.02.02-.05,0,0,.01-.02.02-.03,0,0,.01-.02.02-.03.02-.02.04-.04.07-.07.01-.01.03-.02.04-.03,0,0,.02-.01.02-.02,0,0,.02-.01.03-.02.02-.01.04-.02.06-.03.02,0,.04-.02.07-.03.09-.04.2-.06.32-.06.12,0,.24.01.35.05.11.04.22.09.31.16.09.07.17.14.23.22.06.08.1.16.13.22.05.13.06.27.04.4,0,.03-.01.06-.02.09-.01.03-.02.05-.03.08-.01.02-.03.05-.04.07,0,.01-.01.02-.02.03,0,0-.02.02-.02.03-.01.02-.03.03-.04.05-.02.01-.03.02-.05.03-.01.01-.03.02-.04.03-.01,0-.03.01-.04.02-.05.02-.09.01-.11-.01Z"/>
              </g>
              <g class="cls-19">
                <path class="cls-10" d="M21.48,27.07c-.02-.06.04-.12.1-.19.07-.07.14-.15.2-.24.03-.05.07-.12.08-.22.01-.1,0-.21-.07-.31-.03-.05-.07-.09-.11-.13-.02-.02-.04-.03-.07-.05-.02-.01-.04-.03-.06-.04-.08-.04-.15-.06-.15-.07,0,0,.01-.02.04-.02.01,0,.03,0,.05,0,.02,0,.04,0,.07,0,.05,0,.12,0,.19.03.07.02.15.06.22.11.07.05.13.13.18.21.04.08.07.17.08.26,0,.09,0,.17-.02.25-.02.07-.04.14-.07.18-.05.09-.13.17-.2.22-.08.05-.15.08-.22.09-.02,0-.03,0-.05,0-.02,0-.03,0-.04,0-.01,0-.03,0-.04,0-.01,0-.02,0-.03,0-.04-.01-.06-.04-.07-.07Z"/>
              </g>
              <g class="cls-19">
                <path class="cls-10" d="M22.39,28.46c-.03-.06,0-.12.03-.18.03-.06.08-.13.14-.21.03-.04.07-.09.1-.16.03-.07.06-.14.05-.22,0-.07-.05-.15-.1-.2-.05-.05-.09-.08-.09-.09,0,0,.01-.01.03-.02.02,0,.05,0,.1,0,.04,0,.09.03.14.06.05.03.1.08.14.14.04.06.06.13.08.2.01.07,0,.14,0,.21-.01.06-.03.12-.05.17-.02.05-.04.09-.07.12-.09.12-.2.2-.3.23-.1.03-.17,0-.2-.06Z"/>
              </g>
              <g class="cls-19">
                <path class="cls-10" d="M17.55,32.63c.06-.03.13.03.23.09.09.07.21.15.36.21,0,0,.02,0,.03.01.01,0,.02,0,.03.01.02,0,.05.02.07.03.05.02.12.03.18.04.13.01.28,0,.39-.08.05-.04.1-.09.13-.14,0-.01.01-.03.02-.04,0-.01.01-.03.02-.04.01-.03.02-.06.02-.08,0,0,0-.01,0-.02,0,0,0-.01,0-.02,0-.01,0-.02,0-.04,0-.02,0-.04,0-.06,0-.03,0-.05.01-.06,0,0,.02,0,.03.04,0,.01.02.03.02.05,0,.02.01.05.02.08,0,.06.02.13,0,.22-.01.08-.05.18-.12.27-.07.08-.16.16-.26.2-.1.05-.21.07-.31.08-.1,0-.2,0-.28-.01-.04,0-.08-.02-.12-.03-.02,0-.03-.01-.05-.02-.02,0-.03-.01-.04-.02-.22-.09-.38-.25-.44-.39,0-.02-.01-.03-.02-.05,0-.02,0-.03-.01-.05,0-.03,0-.06,0-.08,0-.05.02-.08.06-.09Z"/>
              </g>
              <g class="cls-19">
                <path class="cls-10" d="M12.18,33.38s.05.03.07.06c0,.01.02.03.02.05,0,.02.01.04.02.06.02.08.03.17.04.28,0,.05.01.13.04.22.02.09.06.19.11.28,0,.01.01.02.02.03,0,.01.01.02.02.03.01.02.03.04.04.06.02.02.03.04.04.05.02.02.03.03.04.04.03.03.05.05.07.06.02.02.03.03.03.04,0,0-.01.01-.04.01-.01,0-.03,0-.04,0-.02,0-.04,0-.06,0-.09-.02-.2-.07-.31-.15-.11-.08-.2-.2-.27-.31-.06-.12-.09-.23-.11-.31-.02-.16,0-.3.06-.39.03-.05.06-.08.09-.09.03-.02.07-.02.1,0Z"/>
              </g>
              <g class="cls-19">
                <path class="cls-10" d="M13.87,33.81c.06.03.07.09.08.16,0,.07,0,.16-.01.24,0,.04-.02.1-.02.17,0,.07,0,.14.05.2.02.03.04.06.07.09.03.03.06.05.09.06.06.04.1.06.1.07,0,0,0,.02-.03.02-.02,0-.05.01-.09.02-.04,0-.09,0-.14-.01-.05-.01-.11-.03-.17-.07-.06-.04-.11-.08-.15-.14-.04-.06-.07-.12-.09-.17-.04-.12-.04-.23-.03-.29.02-.14.07-.25.14-.31.07-.06.14-.08.2-.04Z"/>
              </g>
              <g class="cls-19">
                <path class="cls-10" d="M15.95,33.53c.03.06,0,.12-.02.19-.01.03-.03.07-.04.1-.01.03-.03.07-.04.11-.01.04-.03.1-.03.19,0,.08.01.18.05.28.02.05.04.09.06.13.01.02.02.04.03.06.01.02.02.03.03.05.04.06.08.1.08.11,0,.02-.06.01-.14-.02-.08-.03-.18-.1-.27-.2-.09-.1-.16-.22-.2-.36-.02-.07-.03-.13-.03-.19,0-.06.01-.11.02-.16.02-.08.07-.16.12-.22.05-.06.11-.1.16-.12.01,0,.03,0,.04-.01.01,0,.02,0,.04,0,.02,0,.04,0,.06,0,.04,0,.06.03.08.06Z"/>
              </g>
              <path class="cls-2" d="M9.14,16.85s.64-.04,1-.19c.36-.15.16.81.16,1.08s.24,1.24.24,1.24c0,0,1.44-1.35,1.56-1.47.12-.12.2,1.62.4,1.74.2.12,1.76-1.39,1.76-1.39l.88,2.32-1.08-.85-1.56,1.47s-.68-2.09-1-1.81-1.2,1.48-1.36,1.35c-.44-.35-.64-2.01-.68-2.43-.04-.42-.84-.46-.84-.46l.52-.58Z"/>
              <path class="cls-2" d="M6.13,10.27s.29-.29.45-.09c.16.19.44.58.56,1.08.12.5-.44,2.59-.44,2.59,0,0,.08-2.05-.12-2.36s-.45-1.22-.45-1.22"/>
              <path class="cls-2" d="M4.57,11.04s.29-.29.45-.09c.16.19.44.58.56,1.08.12.5.12,2.47.12,2.47,0,0-.48-1.93-.68-2.24-.2-.31-.45-1.22-.45-1.22"/>
              <polyline class="cls-2" points="3.21 12.73 4.37 13.92 4.57 14.92 3.73 15.92 3.21 12.73"/>
              <path class="cls-6" d="M21.72,27.59l-1.02.47-.03-.67-.63-.63-.67.69-.18-1.02s-1.44.39-1.48,5.14c0,.22.32-.14.56-.14.34,0,.65.11.91.29.06-.23.22-.79.39-1.28.21-.63,2.27-1.38,2.38-1.57.1-.19-.23-1.28-.23-1.28Z"/>
              <path class="cls-6" d="M13.36,29.31s.57.17.52.36c-.05.19.99.46,1.07.69.08.23,1.1,1.72,1.1,1.72,0,0-.06-.41.22-1.41s.19-1.8.19-1.8l-1,.03-.54.34-1-.23-.57.3"/>
              <path class="cls-15" d="M16.23,35.19s.09,0,.14.05c.04.04.09.1.13.16.02.03.04.07.08.11.04.04.09.08.15.11,0,0,.02,0,.02.01,0,0,.02,0,.02,0,.02,0,.03.01.05.02.03.01.06.02.09.03.05.01.09.03.09.03,0,.01-.03.03-.08.05-.03,0-.06.01-.1.02-.02,0-.04,0-.06,0-.02,0-.04,0-.07,0-.02,0-.05,0-.07,0-.02,0-.05,0-.07-.02-.02,0-.05-.02-.07-.03-.02-.01-.04-.02-.07-.03-.08-.05-.14-.11-.17-.16-.06-.09-.09-.18-.08-.24,0-.07.03-.11.08-.13Z"/>
              <path class="cls-15" d="M22.21,28.66s-.09,0-.14.05c-.04.04-.09.1-.13.16-.02.03-.04.07-.08.11-.04.04-.09.08-.15.11,0,0-.02,0-.02.01,0,0-.02,0-.02,0-.02,0-.03.01-.05.02-.03.01-.06.02-.09.03-.05.01-.09.03-.09.03,0,.01.03.03.08.05.03,0,.06.01.1.02.02,0,.04,0,.06,0,.02,0,.04,0,.07,0,.02,0,.05,0,.07,0,.02,0,.05,0,.07-.02.02,0,.05-.02.07-.03.02-.01.04-.02.07-.03.08-.05.14-.11.17-.16.06-.09.09-.18.08-.24,0-.07-.03-.11-.08-.13Z"/>
              <path class="cls-15" d="M21.18,27.26s-.08.04-.1.1c-.02.06-.04.13-.05.19,0,.03-.01.08-.03.14-.02.05-.05.11-.09.16,0,0-.01.01-.02.02,0,0-.01.01-.02.02-.01.01-.02.02-.03.04-.02.02-.05.04-.07.06-.04.03-.07.06-.07.07,0,.01.04.02.09.01.03,0,.06-.01.1-.02.02,0,.04-.01.06-.02.02,0,.04-.01.06-.03.02-.01.04-.02.06-.03.02-.01.04-.03.06-.04.02-.02.04-.03.05-.05.02-.02.03-.04.05-.06.06-.08.08-.16.09-.21.02-.11,0-.2-.03-.26-.03-.06-.07-.09-.12-.09Z"/>
              <path class="cls-15" d="M18.86,32.04s-.05-.08-.04-.14c0-.06.03-.13.06-.19.01-.03.03-.08.04-.13.01-.05.01-.12,0-.19,0,0,0-.02,0-.03,0,0,0-.02,0-.02,0-.02,0-.03-.01-.05-.01-.03-.02-.06-.03-.08-.02-.05-.03-.08-.03-.09,0-.01.04,0,.09.03.02.02.05.04.08.06.01.01.03.03.04.04.01.02.03.03.04.05.01.02.03.04.04.06.01.02.02.04.03.07,0,.02.02.05.02.07,0,.02,0,.05.01.07,0,.1,0,.18-.03.23-.04.1-.1.17-.15.21-.05.04-.11.05-.15.02Z"/>
              <path class="cls-15" d="M19.9,26.42s-.08.04-.1.1c-.02.06-.04.13-.05.19,0,.03-.01.08-.03.14-.02.05-.05.11-.09.16,0,0-.01.01-.02.02,0,0-.01.01-.02.02-.01.01-.02.02-.03.04-.02.02-.05.04-.07.06-.04.03-.07.06-.07.07,0,.01.04.02.09.01.03,0,.06-.01.1-.02.02,0,.04-.01.06-.02.02,0,.04-.01.06-.03.02-.01.04-.02.06-.03.02-.01.04-.03.06-.04.02-.02.04-.03.05-.05.02-.02.03-.04.05-.06.06-.08.08-.16.09-.21.02-.11,0-.2-.03-.26-.03-.06-.07-.09-.12-.09Z"/>
              <path class="cls-15" d="M14.17,35.24s.08.04.11.09c.03.05.05.12.06.19,0,.03.02.08.04.13.02.05.06.11.1.16,0,0,.01.01.02.02,0,0,.01.01.02.02.01.01.03.02.04.03.03.02.05.04.07.05.04.03.07.05.07.06,0,.01-.03.02-.09.02-.03,0-.06,0-.1-.01-.02,0-.04,0-.06-.02-.02,0-.04-.01-.06-.02-.02,0-.04-.02-.06-.03-.02-.01-.04-.02-.06-.04-.02-.02-.04-.03-.06-.05-.02-.02-.03-.04-.05-.05-.06-.07-.09-.15-.11-.21-.03-.1-.02-.2,0-.26.02-.06.06-.09.12-.09Z"/>
              <path class="cls-15" d="M12.29,34.89s.08.04.11.1c.03.06.04.13.06.19,0,.03.01.08.03.13.02.05.05.11.1.16,0,0,.01.01.02.02,0,0,.01.01.02.02.01.01.02.02.04.03.03.02.05.04.07.06.04.03.07.06.07.06,0,.01-.04.02-.09.02-.03,0-.06,0-.1-.02-.02,0-.04-.01-.06-.02-.02,0-.04-.01-.06-.02-.02-.01-.04-.02-.06-.03-.02-.01-.04-.03-.06-.04-.02-.02-.04-.03-.06-.05-.02-.02-.03-.04-.05-.05-.06-.08-.09-.16-.1-.21-.02-.11-.01-.2.01-.26.03-.06.07-.09.12-.09Z"/>
              <g class="cls-16">
                <path class="cls-3" d="M13.41,8.57c.01.13-.37.26-.72.64-.19.17-.53.56-.77.95-.25.39-.41.76-.44.76-.04.01.02-.39.21-.85.17-.46.5-.95.73-1.15.21-.21.47-.35.66-.4.21-.04.33-.02.34.05Z"/>
              </g>
              <g class="cls-17">
                <path class="cls-9" d="M14.78,15.19s-.03.15-.21.22c-.05.01-.11.03-.18.03-.07-.02-.17-.02-.23-.09-.16-.12-.18-.27-.2-.4-.1-.57.51-1.78.59-1.77.03,0-.06.32-.12.71-.07.39-.1.84-.07,1.02.05.19.02.2.15.21.12,0,.23,0,.26.07Z"/>
              </g>
              <g class="cls-17">
                <path class="cls-9" d="M13.5,15.28s-.1.05-.25-.03c-.15-.07-.29-.3-.28-.53-.01-.24.14-.65.37-.93.11-.15.24-.27.33-.35.1-.08.17-.12.18-.12.03,0-.22.21-.4.52-.2.3-.3.7-.29.89-.01.4.34.48.33.55Z"/>
              </g>
              <g class="cls-17">
                <path class="cls-9" d="M18.12,3.72c-.07-.01.03-.25-.1-.43-.06-.08-.21-.16-.39-.15-.05,0-.09,0-.13,0-.05.01-.1.02-.15.04-.1.01-.2.06-.31.11-.43.17-1.22.73-1.7,1.4-.5.66-.73,1.36-.78,1.37-.03.04.1-.69.56-1.46.44-.77,1.27-1.46,1.78-1.66.48-.23,1.17-.2,1.38.23.13.43-.13.59-.16.56Z"/>
              </g>
              <g class="cls-17">
                <path class="cls-9" d="M18.49,5.5c.08.08-.07.29-.34.43-.07.03-.18.07-.29.11-.13.02-.27.03-.39.03-.26-.02-.46-.09-.47-.11,0-.03.21-.07.43-.11.13-.05.24-.09.32-.12.09-.06.18-.1.24-.13.22-.11.42-.2.51-.1Z"/>
              </g>
              <g class="cls-17">
                <path class="cls-9" d="M18.75,7.58c0,.11-.34.13-.68-.02-.17-.08-.45-.27-.67-.46-.22-.18-.42-.34-.42-.37,0-.03.25.05.53.17.27.13.58.26.72.33.29.12.52.21.51.35Z"/>
              </g>
              <path class="cls-8" d="M30.03,10.27c-.03-.08-.09-.16-.15-.23-.08-.09-.15-.18-.15-.31,0-.07-.05-.15-.08-.22-.06-.11-.13-.22-.19-.33-.21-.34-.44-.66-.77-.91-.03-.02-.06-.05-.08-.08-.13-.19-.24-.38-.37-.56-.39-.54-.92-.86-1.58-1.02-.62-.15-1.24-.15-1.86-.07-.15.02-.15.02-.18-.12-.18-.71-.51-1.35-1.03-1.89-.11-.12-.25-.22-.39-.31-.08-.06-.18-.07-.26.01-.08.07-.06.15-.03.24.02.08.05.16.05.23-.01.15-.03.3-.07.44-.15.52-.42.99-.74,1.42-.44.6-.77,1.23-.9,1.96-.04.2-.15.36-.28.51-.24.29-.5.57-.72.87-.5.69-.92,1.43-1.32,2.18-.03.06-.07.12-.12.2-.05-.33-.08-.64-.15-.94-.1-.48-.23-.96-.34-1.45,0-.03-.01-.08,0-.1.18-.14.18-.34.17-.54-.02-.39-.13-.76-.28-1.12-.01-.03-.02-.06-.04-.1.13,0,.26.02.38.01.33-.03.55-.31.5-.63-.05-.36-.27-.62-.54-.86-.11-.09-.23-.18-.36-.27.05-.02.09-.04.12-.05.27-.11.52-.24.71-.47.22-.26.22-.55,0-.8-.14-.16-.34-.26-.54-.34-.05-.02-.1-.04-.16-.06.05-.05.08-.09.12-.13.3-.37.51-.76.46-1.25-.03-.38-.22-.66-.58-.81-.11-.04-.23-.07-.34-.1-.16,0-.32.01-.48.02-.28.09-.56.16-.82.29-.85.39-1.49,1.01-1.92,1.82-.32.62-.51,1.27-.55,1.96,0,.06-.02.1-.1.08-.56-.1-.98.13-1.31.54-.41.5-.64,1.09-.79,1.7-.04.18-.11.34-.22.5-.39.53-.6,1.14-.75,1.77-.04.16.06.27.24.27.09,0,.18-.02.28-.03,0,.04,0,.07-.02.11-.21.84-.55,1.63-.96,2.39-.16.3-.35.53-.64.72-.5.33-.86.8-1.14,1.32-.02.03-.04.06-.07.11-.03-.03-.04-.05-.05-.07-.09-.16-.17-.32-.26-.48-.03-.06-.03-.1.03-.14.48-.42.79-.93.98-1.52.09-.27.26-.53.43-.77.23-.34.49-.67.74-1.01.01-.02.03-.04.05-.08-.47-.18-.94-.22-1.43-.18-.5.04-.93.22-1.33.52.01-.03.02-.06.03-.09.1-.3.21-.61.31-.91.07-.22.05-.43-.06-.63-.3-.58-.73-1.05-1.31-1.39-.24-.14-.44-.09-.58.14-.11.19-.18.4-.27.6-.01.03-.02.06-.03.1-.1-.11-.18-.22-.27-.31-.09-.09-.18-.17-.29-.24-.17-.11-.33-.1-.48.05-.11.12-.22.24-.3.38-.15.26-.27.53-.4.8-.03.07-.05.09-.13.06-.33-.1-.82.1-1.01.41-.21.36-.3.76-.36,1.16-.04.27-.06.53-.08.8,0,.02,0,.04-.01.06.01.32.02.64.03.96,0,.02.02.05.02.07.04.24.07.48.12.72.19.94.54,1.83,1.05,2.65.12.19.27.37.36.58.54,1.21,1.26,2.29,2.27,3.19.06.05.07.09.05.16-.14.65-.19,1.31-.17,1.97,0,.3.03.61.07.9.07.48.16.95.24,1.42,0,.03.04.06.07.09.02-.03.06-.06.06-.09.02-.12.03-.25.04-.37.02-.19.04-.38.06-.57.04.05.06.1.08.15.31.89.81,1.66,1.52,2.3.48.43,1.02.76,1.62,1.02.07.03.11.07.13.15.09.3.26.55.52.74.41.31.89.43,1.4.43.09,0,.13.02.15.11.02.14.1.25.22.32.14.08.3.14.45.2.2.09.4.17.59.25.05.02.07.05.03.11-.13.19-.27.37-.38.57-.14.26-.27.52-.39.79-.06.14-.14.26-.26.37-.14.12-.26.25-.39.38-.07.07-.13.15-.21.21-.34.26-.51.6-.48,1.01.02.44.24.77.64,1,.04.02.07.06.09.09.08.16.19.28.35.36.17.09.2.08.23-.1.02-.15.07-.19.22-.23.08-.02.15-.04.23-.07.07-.03.11-.02.16.04.16.19.36.32.6.4.03.01.07.03.09.05.12.16.29.27.48.34.02,0,.04,0,.07,0,0-.08.01-.15.03-.23.02-.09.07-.15.17-.18.14-.05.28-.13.4-.22.07-.05.12-.06.18,0,.23.17.5.24.79.25.07,0,.14.04.21.06.13.05.26.1.4.14.08.02.11-.01.1-.1,0-.12,0-.25.05-.36.03-.08.12-.14.18-.2.22-.25.34-.54.25-.87-.06-.21-.15-.42-.23-.63-.01-.04-.03-.07-.05-.12.11.09.19.17.29.24.32.22.69.25,1.06.2.41-.06.78-.21,1.01-.57.23-.35.32-.74.18-1.14-.05-.15-.15-.27-.23-.41-.02-.04-.04-.08-.05-.12-.04-.38.04-.75.21-1.09.04-.08.12-.14.18-.21.08-.09.15-.18.23-.27.03-.04.07-.09.12-.11.09-.04.15-.08.19-.17.02-.05.06-.1.11-.13.08-.06.17-.11.26-.17.05-.03.1-.05.16-.07.1-.03.22-.05.31-.1.15-.08.28-.19.46-.06.01,0,.04.01.05,0,.14-.02.28-.05.42-.08.09-.02.18-.07.27-.07.32,0,.59-.12.8-.34.19-.19.25-.41.25-.68-.01-.5-.22-.83-.69-1.03-.03-.01-.06-.02-.07-.04-.03-.06.03-.26.09-.3.43-.3.81-.64,1.14-1.04.39-.47.68-.98.84-1.55.2-.68.19-1.36.06-2.04-.1-.56-.29-1.1-.61-1.59-.45-.68-1.06-1.19-1.81-1.55-.9-.44-1.84-.57-2.83-.35-.1.02-.21.05-.34.09.33-.55.67-1.04,1.07-1.53.03.06.06.11.08.15.11.18.22.37.42.49.19.11.37.02.4-.18.04-.22.07-.46.16-.67.32-.74.66-1.48,1.01-2.21.05-.11.15-.19.23-.28.02.06.02.11.02.15,0,.19,0,.38.03.56,0,.1.02.22.15.24.14.02.18-.09.23-.19.07-.14.12-.29.19-.43.27-.61.62-1.17,1.01-1.71.13-.19.27-.39.43-.55.36-.34.74-.66,1.11-.98.16-.14.31-.31.5-.4.7-.37,1.46-.59,2.26-.63.52-.02,1.04.03,1.53.23.06.03.11.01.1-.05,0-.11-.01-.22-.05-.32ZM28.66,8.66c.24.21.4.47.56.74-.38-.27-.81-.46-1.25-.61-.24-.08-.49-.14-.75-.14-.04,0-.09-.02-.12-.05-.23-.3-.45-.6-.68-.9,0,0,0-.01,0-.03.05,0,.09,0,.13.01.78.18,1.51.46,2.11.99ZM14.32,6.37c.13-.72.34-1.42.75-2.05.49-.76,1.17-1.29,2.04-1.6.27-.09.54-.15.83-.1.41.07.64.37.6.77-.05.46-.32.81-.66,1.1-.27.24-.59.4-.91.57-.12.06-.24.12-.35.19-.04.03-.06.08-.09.12.05.01.11.05.15.04.22-.06.44-.12.65-.21.2-.09.38-.21.57-.31.03-.02.09-.04.12-.03.21.08.43.14.61.25.29.17.23.41.02.56-.37.26-.77.45-1.25.44-.13,0-.26-.04-.4-.05-.04,0-.09.02-.13.04.02.04.04.09.07.1.13.05.25.11.39.13.16.02.3.06.44.14.33.17.63.38.84.68.06.08.1.17.13.26.09.28-.1.47-.39.4-.13-.03-.27-.09-.38-.16-.21-.12-.4-.27-.6-.4-.03-.02-.07-.01-.11-.02,0,.04,0,.09.03.11.18.21.38.41.54.63.26.36.38.78.46,1.21.02.13.02.26.02.39,0,.03-.02.06-.03.09-.01,0-.02,0-.03,0-.03-.08-.06-.17-.09-.25-.31-.85-.74-1.63-1.34-2.33-.23-.26-.47-.5-.78-.67-.53-.29-1.21-.38-1.73.13.01-.07.02-.12.03-.17ZM11.49,10.97c-.06.02-.13.03-.2.05,0-.04,0-.06,0-.09.15-.53.3-1.06.63-1.53.23-.32.47-.62.82-.84.26-.17.54-.19.79,0,.23.17.43.36.64.55.3.28.6.56,1.02.67.13.04.27.06.41.07.18.02.32-.05.44-.18.03-.03.07-.05.11-.07.01.01.02.03.03.04-.05.05-.1.1-.16.14-.74.49-1.54.83-2.44.91-.24.02-.49.04-.74.04-.46,0-.9.09-1.34.23ZM12.82,8.26c.08-.27.17-.69.38-.88.24-.22.43-.17.53-.08.31.3-.03.84-.04.85-.2-.01-.33-.26-.39-.12-.03.08-.07.13-.17.14-.1.01-.19.05-.31.09ZM15.28,13.79c0,.39-.01.77-.15,1.14-.11.28-.28.49-.58.59-.33.11-.61-.03-.7-.35-.08-.27-.08-.54-.01-.82.11-.46.36-.84.65-1.22.12-.15.25-.3.34-.47.09-.16.18-.33.2-.5.04-.29.22-.52.36-.76-.17.78-.12,1.58-.11,2.37ZM13.57,15.15c.02.1-.02.14-.11.16-.29.07-.53-.11-.57-.44-.05-.4.1-.74.36-1.04.17-.19.33-.37.51-.56.03-.03.08-.05.12-.07.12-.03.24-.06.34-.09-.11.17-.25.36-.36.55-.27.46-.39.95-.28,1.48ZM14.64,12.17c-.14.22-.29.43-.45.64-.05.06-.13.11-.21.14-.15.06-.25.03-.32-.11-.07-.14-.12-.29-.16-.44-.12-.47-.27-.94-.53-1.36,0-.01,0-.03-.02-.05.03,0,.05-.01.06-.01.21-.02.2-.02.23.18.06.42.16.84.32,1.24.03.08.08.15.13.22.08.11.17.13.3.06.18-.1.3-.25.4-.41.34-.52.66-1.05.99-1.58.09-.15.18-.3.27-.44.04-.06.11-.12.18-.16.14-.1.28-.2.43-.31-.02.05-.04.1-.07.14-.26.34-.54.67-.78,1.03-.28.4-.52.83-.79,1.24ZM13.47,10.94c.66-.06,1.28-.25,1.86-.54,0,0,0,0,.01,0-.41.62-.83,1.25-1.24,1.86-.05.08-.13.14-.21.22-.06-.11-.12-.2-.14-.29-.12-.39-.23-.78-.34-1.16-.02-.05,0-.09.06-.09ZM16.25,8.82c-.05.29-.23.47-.51.56-.18.06-.36-.01-.51-.11-.31-.21-.5-.5-.53-.86-.18-1.89,1.07-1.31,1.31-.57.11.33.29.63.24.99ZM16.38,9.1c-.03.11-.06.2-.09.31-.05-.01-.09-.03-.14-.04.08-.09.14-.17.22-.27ZM9.83,14.84s.02.02.03.03c-.14.16-.29.32-.43.49-.01,0-.02-.02-.03-.03.14-.16.29-.33.43-.49ZM9.85,15.35c.29-.34.54-.72.77-1.11.55-.91.96-1.88,1.21-2.91.06-.25.06-.25.32-.29.15-.03.3-.04.45-.06.1-.01.16.02.21.11.18.33.29.68.39,1.03.05.2.11.39.17.58.05.17.12.34.28.46-.12.1-.23.19-.34.28-.27.24-.51.51-.62.85-.11.34-.11.68.13.98.16.2.48.33.78.15.01,0,.03-.01.05-.02.01.01.03.03.04.04.23.35.62.4.96.28.35-.13.58-.37.72-.7.11-.26.15-.54.15-.82,0-.49-.02-.97-.03-1.46,0-.45.01-.89.11-1.33.05-.23.14-.44.3-.63.2-.25.39-.5.59-.76.01.01.04.03.07.05.19.16.4.26.65.3.03,0,.05,0,.08-.01-.46-.09-.81-.53-.81-1.06,0-.25.08-.48.21-.66-.02,0-.04.01-.05.03-.06.06-.11.14-.17.22,0-.03,0-.05,0-.07.04-.2,0-.39-.03-.59-.12-.64-.54-.98-.7-1.12-.36-.3-.83-.24-1.08.16-.3.47-.29.97-.1,1.48.01.03.03.06.02.11-.03-.02-.06-.03-.08-.05-.18-.14-.36-.28-.55-.41-.08-.05-.05-.1-.03-.16.11-.23.17-.47.14-.72-.01-.12-.06-.25-.12-.35-.11-.17-.32-.23-.51-.14-.28.12-.5.3-.6.59-.08.22-.14.44-.21.67-.04.13-.15.19-.25.26,0-.01-.02-.02-.02-.02.14-.51.36-.98.72-1.39.07-.08.15-.12.25-.14.17-.04.35-.07.49-.15.15-.08.26-.02.39.01.13.03.24-.02.33-.1.07-.07.15-.13.23-.2,0,.06,0,.11.02.13.03.02.08.02.12.02.26,0,.5.08.74.18.06.02.14.08.18,0,.02-.04-.04-.12-.08-.16-.08-.07-.17-.11-.25-.19.1.04.2.07.29.12.4.2.7.51.97.85.63.83,1.05,1.75,1.33,2.74.19.67.32,1.35.4,2.04,0,.05.01.1.02.15.05.25-.03.47-.15.69-.24.45-.47.9-.68,1.36-.45.95-.9,1.91-1.33,2.87-.33.73-.63,1.47-.95,2.21-.01.03-.03.06-.05.1-.03-.04-.05-.06-.07-.09-.36-.57-.64-1.18-.77-1.84,0-.02,0-.04-.01-.06-.05-.17-.11-.19-.25-.09-.39.3-.78.6-1.15.92-.15.13-.27.3-.4.45-.02.03-.04.06-.07.1-.23-.7-.2-1.4-.18-2.11-.73.5-1.44,1-1.92,1.75-.18-.83,0-1.63.21-2.46-.43.18-.84.34-1.29.36-.44.02-.88-.03-1.31-.18.04-.02.07-.03.11-.05.6-.24,1.16-.55,1.57-1.03ZM6.1,10.05c.08-.21.17-.41.29-.61.11-.19.21-.21.41-.07.1.07.19.14.27.23.2.22.4.43.59.66.08.1.14.23.2.35.08.16.09.32.03.49-.3.86-.58,1.71-1,2.52,0,.02-.02.03-.05.08-.01-.11-.03-.2-.03-.28-.03-.31-.04-.63-.11-.94-.04-.2-.03-.39-.02-.59.02-.43-.13-.82-.32-1.2-.07-.14-.16-.28-.23-.42-.03-.06-.05-.15-.03-.21ZM4.33,10.75c.19-.32.37-.65.57-.96.17-.26.3-.26.51-.02.28.32.49.67.67,1.04.17.34.32.7.28,1.08-.04.38-.11.77-.21,1.14-.11.41-.27.81-.4,1.21,0,.02-.02.04-.04.08-.04-.15-.07-.28-.11-.4-.09-.35-.2-.7-.38-1.02-.02-.03-.03-.07-.03-.1.02-.35-.07-.68-.23-.99-.13-.24-.28-.47-.42-.7-.05-.08-.12-.14-.18-.2-.04-.05-.07-.09-.03-.16ZM6.62,21.03s-.07-.05-.1-.08c-.53-.49-.98-1.04-1.36-1.65-.28-.44-.51-.9-.73-1.37-.08-.17-.21-.31-.31-.47-.58-.9-.97-1.87-1.16-2.91-.07-.38-.11-.77-.13-1.16-.03-.67.08-1.33.34-1.96.12-.28.32-.43.62-.48.15-.02.29.03.38.14.37.46.68.96.72,1.55.02.26-.06.53-.12.79-.09.38-.2.75-.3,1.12,0,.02-.02.04-.03.07-.04-.08-.08-.14-.12-.21-.28-.49-.56-.98-.84-1.46-.04-.07-.08-.13-.14-.18-.03-.03-.09-.04-.14-.05,0,.05-.01.1,0,.14.2.39.41.78.61,1.17.21.41.42.83.64,1.25.01.03.03.05.06.11.24-.73.46-1.43.62-2.15.01,0,.03,0,.04,0,.15.66.31,1.31.47,2,.4-.78.65-1.59.88-2.41,0,.03,0,.05,0,.08.01.27.01.54.03.81,0,.11.03.21.07.31.05.14.16.16.26.05.09-.1.17-.2.22-.32.13-.25.23-.52.36-.77.33-.68.91-1.02,1.66-1.09.27-.02.55.01.82.03.04,0,.07.02.13.03-.13.17-.25.31-.35.47-.18.26-.35.53-.51.8-.07.13-.11.27-.16.41-.19.64-.54,1.18-1.12,1.56-.22.14-.47.2-.74.17-.06,0-.16.02-.16.04-.01.09.08.09.14.11.3.06.59.02.86-.11.04-.02.08-.04.14-.07.08.21.16.4.22.6,0,.02-.04.09-.08.1-.17.07-.34.13-.51.19-.14.05-.27.09-.41.14-.04.01-.06.05-.1.08.03.02.06.05.1.07.43.18.87.32,1.34.37.01,0,.03,0,.06.02-.06.07-.11.14-.16.2-.47.54-.94,1.08-1.39,1.63-.27.32-.51.66-.76.99-.03.05-.05.11-.06.16-.03.19.1.31.3.26.1-.03.19-.08.31-.13-.14.34-.28.67-.42,1.01ZM11.56,29.23c-.42-.1-.78-.31-1.03-.67-.02-.03-.03-.06-.05-.08.99.34,2,.48,3.04.52-.03.02-.06.04-.09.05-.61.22-1.22.34-1.87.18ZM16.89,34.75s-.08.04-.12.03c-.18-.06-.36,0-.53.03-.05.01-.11.11-.11.18-.01.1-.05.11-.14.09-.33-.08-.58-.24-.66-.58-.05-.23-.13-.46-.09-.7.02-.17.1-.32.25-.43.08-.06.17-.12.26-.17.06-.04.12-.08.17-.12.03-.03.03-.08.04-.12-.04,0-.09-.02-.12,0-.24.1-.47.2-.67.39-.02-.14,0-.26.08-.35.13-.15.28-.28.42-.42.04-.04.09-.07.13-.11.02-.02.02-.06.03-.09-.04,0-.08-.03-.11-.02-.13.06-.25.12-.37.19-.05.03-.1.07-.16.12,0-.05,0-.08-.01-.11,0-.18,0-.36-.02-.53-.01-.16.04-.29.16-.39.02-.02.05-.04.07-.06.03-.04.05-.08.07-.13-.06,0-.12-.03-.17,0-.27.1-.39.29-.39.57,0,.4.01.79.02,1.19,0,.07.01.16.05.22.06.09.05.16.02.25-.08.34,0,.66.12.97.04.1.03.17-.05.24-.04.04-.08.08-.13.11-.07.05-.15.11-.22,0,0,0-.02-.02-.03-.02-.18-.02-.36-.05-.54-.07-.07,0-.13.03-.14.1-.02.06-.05.06-.1.04-.32-.15-.66-.73-.38-1.13.1-.14.19-.3.27-.45.05-.1.09-.22.13-.33.06-.18.15-.23.34-.21.15.02.3.03.45.04.03,0,.07,0,.1,0,.03-.01.06-.04.08-.07-.02-.02-.05-.06-.08-.06-.25-.04-.5-.08-.76-.12,0,0-.01,0-.05-.02,0-.16,0-.34.01-.51.02-.14.13-.23.27-.27.04-.01.08-.02.12-.04.06-.03.06-.09,0-.12-.03-.02-.09-.03-.09-.05,0-.06.02-.11.03-.17,0-.05.01-.09.02-.14-.06,0-.13-.02-.18,0-.11.06-.14.17-.12.28.01.08-.01.11-.07.15-.2.13-.26.32-.24.55.01.13.04.26.06.39,0,.03-.01.07-.03.11-.04.09-.08.17-.12.25-.09.17-.18.34-.26.51-.08.17-.18.33-.22.51-.03.13.02.27.05.41.01.05.01.09-.04.11-.08.03-.16.07-.24.09-.02,0-.05.01-.07,0-.19-.08-.39-.09-.6-.1-.04,0-.08-.02-.11-.04-.52-.34-.55-1.09-.05-1.45.06-.04.15-.06.22-.05.18.04.36.1.54.15.03,0,.09.02.1,0,.02-.03.03-.08.01-.1-.05-.06-.11-.13-.19-.16-.12-.06-.25-.09-.4-.15.08-.08.16-.15.23-.22.07-.07.16-.13.22-.21.07-.09.16-.11.27-.09.08.01.16.03.25.04.04,0,.1-.02.11-.04,0-.04,0-.1-.04-.12-.11-.06-.23-.11-.37-.17.05-.12.1-.27.17-.42.01-.02.08-.04.11-.03.08.02.16.06.24.08.04.01.11.01.12-.01.02-.03.02-.1,0-.12-.06-.07-.14-.12-.21-.17-.03-.02-.06-.03-.1-.04.14-.23.28-.46.42-.69.08.06.15.11.22.16.24.18.55.22.81-.03.18-.18.36-.35.31-.63,0-.06-.03-.11-.06-.17-.01-.02-.05-.03-.08-.03-.02,0-.03.04-.04.06,0,0,0,.01,0,.02.03.31-.18.48-.41.64-.09.06-.2.05-.29,0-.17-.09-.33-.18-.5-.28-.11-.06-.22-.13-.33-.21.07-.04.14-.07.21-.12.12-.09.23-.2.35-.3.03-.03.05-.07.07-.11,0-.02,0-.06-.02-.08-.01-.01-.06,0-.08,0-.04.02-.07.05-.11.08-.18.11-.35.22-.54.31-.11.06-.24.05-.36,0-.1-.04-.21-.08-.31-.12-.04-.02-.09-.04-.11-.08-.04-.05-.05-.11-.08-.16.05-.02.1-.04.14-.05.28-.09.57-.15.84-.26.16-.07.3-.2.46-.31.02.02.05.05.06.09.09.26.28.38.56.37.22-.01.34.1.43.27,0,.01.01.03.02.04.04.03.08.06.13.09.03-.05.08-.11.07-.16-.02-.1-.07-.2-.12-.32.24-.19.49-.42.84-.46.24-.03.4.11.54.28.12.15.09.32,0,.47-.09.17-.21.32-.28.49-.15.32-.19.67-.18,1.02,0,.24.04.48.07.71,0,.06,0,.12,0,.18-.03.34.11.61.36.85.34.33.54.73.66,1.17.07.24,0,.46-.18.65ZM14.11,28.97c.56.01,1.09-.13,1.62-.26-.32.12-.56.32-.8.54-.07.06-.14.08-.23.07-.07-.01-.14-.02-.21-.03-.23-.03-.28-.07-.38-.32ZM16.76,31.43c0,.3,0,.6.02.9,0,.17.05.34.08.51,0,.02,0,.05,0,.07-.01,0-.02,0-.03,0-.22-.19-.46-.37-.48-.7-.02-.33-.08-.66-.09-.99-.02-.46.07-.9.34-1.29.09-.13.15-.29.18-.44.04-.26-.11-.46-.31-.62-.04-.03-.09-.06-.13-.09.22-.08.37.05.52.15.02.01.03.06.02.09-.1.8-.13,1.6-.11,2.41ZM16.77,28.36c-.09-.33.04-.61.25-.86.09-.11.19-.2.27-.31.03-.03.03-.08.04-.13-.05,0-.12-.04-.15-.02-.15.1-.32.18-.44.31-.26.27-.37.6-.29.97,0,.01,0,.03,0,.07-.1-.07-.19-.12-.26-.19-.53-.5-.32-1.33.38-1.55.31-.1.59-.03.85.14.06.04.09.09.07.16-.15.52-.3,1.04-.45,1.56,0,.03-.02.06-.04.1-.13-.06-.2-.15-.23-.27ZM19.65,29.93c-.4.28-.49.7-.58,1.12-.01.05-.01.1-.02.17-.11-.15-.21-.29-.32-.43,0,0-.02,0-.03.01,0,.06-.01.12-.02.18-.01.07-.02.14-.04.22-.05.17-.05.17-.23.17-.4.01-.75.14-1,.46-.05.07-.08.15-.11.22,0,.02,0,.08.03.09.02.01.07,0,.1-.01.07-.06.14-.12.21-.18.2-.16.43-.26.69-.26.07,0,.11,0,.1.1-.02.27.22.49.49.44.08-.02.16-.1.23-.15.03-.02.04-.06.06-.11.1.09.14.2.15.31.05.61-.23,1.05-.87,1.19-.35.08-.68.03-.97-.17-.14-.09-.22-.23-.29-.37-.09-.19-.14-.38-.14-.59,0-.52-.03-1.04-.03-1.56,0-.57.02-1.14.13-1.71.02-.12.06-.24.1-.35.1-.33.22-.66.29-1.01.09-.46.26-.88.42-1.31.09-.25.17-.5.27-.75.21-.51.54-.92,1.07-1.15.51-.21,1.05-.14,1.41.21.09.08.15.19.21.29.06.1.07.21.04.32-.12.43-.32.81-.7,1.09-.03.02-.07.04-.11.07-.02-.04-.04-.07-.05-.1-.18-.33-.66-.39-.86-.16-.04.04-.07.03-.11,0-.05-.04-.11-.08-.17-.11-.02-.01-.07,0-.09,0-.02.02-.02.06-.01.09.01.04.03.08.06.1.19.12.21.3.21.49,0,.11,0,.22,0,.32,0,.06.01.12.02.19-.1,0-.2-.02-.3-.07-.06-.04-.11-.08-.16-.12-.04-.02-.08-.02-.13-.04,0,.04,0,.09.02.12.14.22.4.32.67.27.03,0,.06,0,.09-.01-.1.39-.38.44-.66.24-.1-.07-.17-.19-.25-.28-.02-.03-.04-.07-.06-.1-.02-.02-.05-.03-.07-.03-.02,0-.04.04-.04.06.01.06.02.13.05.18.16.27.37.46.72.45.01,0,.03,0,.07.01-.07.14-.12.28-.21.4-.04.05-.15.07-.23.06-.11-.02-.21-.08-.31-.12-.03-.01-.07-.02-.11-.03,0,.04-.02.09,0,.11.07.12.18.18.31.2.06.01.12.02.19.02-.04.2-.13.28-.33.29-.3.02-.43-.07-.55-.34-.02-.04-.06-.06-.09-.09-.02.04-.05.08-.05.12,0,.26.25.48.56.48.08,0,.15,0,.23,0-.03.13-.07.25-.08.37-.01.11,0,.22.02.33,0,.03.03.05.05.07.02-.02.06-.05.06-.07.06-.35.25-.66.38-.99.13-.31.32-.6.44-.92.15-.4.42-.7.71-1,.04-.04.09-.08.14-.1.45-.22.71-.58.88-1.02.06-.17.06-.17.24-.16.3.02.57.11.76.34.33.39.29,1.13-.3,1.39-.08.03-.16.06-.24.09-.03.01-.06.01-.11.02-.04-.21-.16-.37-.37-.44-.21-.07-.4-.04-.55.12-.02,0-.02,0-.03-.01-.05-.02-.09-.04-.14-.07,0,.05-.03.11-.02.15.03.14.08.27.12.4-.01,0-.03.01-.04.02-.02-.02-.04-.05-.07-.07-.03-.02-.07-.03-.1-.04,0,.04-.03.08-.02.1.04.07.08.14.14.19.06.05.08.09.07.16,0,.06,0,.12,0,.2-.08-.02-.18-.04-.26-.07-.1-.04-.19-.11-.29-.16-.04-.02-.1,0-.15,0,.02.04.04.08.07.12.02.02.05.04.08.06.2.15.4.28.68.19-.16.28-.59.33-.85.12-.03-.03-.06-.06-.09-.08-.02-.01-.06-.01-.09,0-.01,0-.01.05,0,.07.06.15.19.23.34.28.03.01.07.02.11.03-.14.15-.27.28-.4.42-.12.14-.24.28-.36.42-.02.02-.03.04-.03.07,0,.02,0,.05.02.06.01,0,.05,0,.07,0,.09-.04.19-.09.28-.14.15.13.16.27,0,.38ZM22.09,21.83c-.46-.52-1.04-.84-1.74-.98-.01,0-.03,0-.07-.02,1.4,0,2.6.89,2.89,2.14.12.5.05,1-.12,1.48-.16.45-.4.86-.69,1.25-.02.03-.06.04-.09.05,0-.03,0-.07.01-.1.17-.28.35-.55.44-.87.34-1.1.13-2.09-.64-2.96ZM22.55,23.41c.11.74-.06,1.42-.52,2.03-.05.07-.1.08-.18.04-.08-.04-.17-.06-.26-.08-.09-.01-.11-.05-.11-.13,0-.39-.06-.76-.21-1.12-.22-.55-.57-1.01-1.07-1.37-.07-.05-.12-.11-.12-.2-.03-.52-.2-.99-.46-1.45-.01-.02-.02-.04-.03-.07,0,0,0-.02-.01-.06.15,0,.28,0,.42.02,1.3.14,2.37,1.13,2.56,2.38ZM21.09,24.7c-.17-.21-.36-.38-.62-.47-.13-.05-.28-.07-.42-.11-.06-.01-.08-.03-.07-.09.04-.29.08-.59.12-.88,0,0,0-.02.03-.05.51.43.83.96.96,1.59ZM20.4,29.24c-.11.05-.22.08-.34.11-.08.02-.1.06-.07.15.01.03,0,.06,0,.09-.04,0-.08,0-.1-.02-.04-.02-.07-.06-.12-.1.19-.21.38-.42.58-.65.05.1.07.16.1.22.05.09.03.16-.06.2ZM22.64,27.11c.32.12.55.48.53.82-.02.35-.25.63-.61.73-.04.01-.08.02-.13.03-.08.01-.13-.01-.15-.09-.05-.18-.19-.25-.36-.26-.09,0-.15-.03-.17-.12,0-.02-.01-.04-.03-.06-.05-.07-.11-.07-.13,0-.02.08-.02.18-.02.27,0,.1,0,.2-.01.29-.02,0-.04.01-.06.02-.03-.05-.06-.09-.07-.14-.02-.07-.03-.14-.05-.21,0-.03-.05-.07-.07-.07-.03,0-.07.04-.07.06,0,.11.02.22.04.34,0,.04.03.07.04.1,0,0-.02.02-.03.02-.08-.07-.15-.14-.23-.22-.02-.02-.03-.05-.05-.06-.03-.01-.06-.01-.09,0-.02,0-.03.05-.02.07.03.06.06.13.1.19.07.12.03.21-.11.23-.12.02-.22-.03-.3-.12-.04-.05-.08-.1-.12-.16.12-.09.24-.17.35-.27.09-.08.17-.17.27-.24.3-.2.52-.51.88-.65.24-.1.45-.25.58-.49.01-.02.07-.03.1-.02ZM19.21,18.85c.34-.11.69-.18,1.05-.19.54-.01,1.06.08,1.56.27.83.32,1.51.81,2,1.54.34.5.53,1.06.64,1.64.09.46.09.92.02,1.37-.1.66-.38,1.25-.8,1.78-.28.36-.62.67-.98.95-.03.02-.06.04-.1.07-.13-.2-.13-.24.03-.42.32-.37.55-.78.71-1.23.4-1.11.23-2.13-.58-3.02-.65-.71-1.48-1.05-2.46-1.02-.27,0-.53.05-.79.14-.09.03-.15.01-.2-.07-.25-.41-.39-.85-.44-1.31-.04-.32.01-.39.34-.5ZM29.63,10.23c-.09-.02-.2-.02-.28-.06-.18-.08-.37-.09-.55-.08-.53.02-1.07.03-1.59.15-.31.07-.59.19-.86.34-.36.2-.74.38-1.15.48-.37.09-.72.07-1.08-.04-.19-.06-.39-.12-.58-.17-.04-.01-.1.01-.14.02.02.04.04.09.07.11.46.27.95.41,1.49.39.16,0,.31-.04.48-.06-.2.18-.39.37-.59.53-.56.43-.93,1.02-1.29,1.6-.3.48-.56.98-.73,1.51-.01.03-.03.07-.05.1-.01,0-.02,0-.03,0-.01-.07-.03-.15-.04-.22,0-.19,0-.38,0-.57,0-.04,0-.08-.01-.11-.02-.08-.08-.1-.14-.05-.15.13-.33.25-.43.41-.45.73-.82,1.5-1.16,2.28-.07.17-.11.34-.16.52-.13-.06-.2-.22-.42-.94-.03.02-.05.04-.07.06-.49.62-.96,1.25-1.34,1.95-.23.42-.43.86-.52,1.34-.01.07-.06.16.04.2.02,0,.08-.1.12-.16.02-.02.02-.06.04-.1.01.04.02.07.03.09.07.44.26.83.51,1.2.28.42.49.87.58,1.36.1.59.07,1.17-.07,1.75-.02.08-.08.09-.14.11-.34.08-.65.22-.9.45-.29.26-.49.58-.65.93-.01.03-.03.06-.04.08-.15-.09-.29-.2-.44-.28-.32-.17-.68-.19-1.03-.15-.03,0-.06.01-.08.03-.03.02-.05.05-.05.08,0,.02.03.06.06.07.08.02.17.04.25.05.43.04.8.19,1.1.48.05.05.06.09.04.15-.05.14-.09.28-.14.42-.01.03-.03.07-.05.11-.6-.36-1.19-.38-1.68.12-.54.55-.46,1.16.02,1.76-.21-.04-.37-.13-.52-.23-.42-.29-.67-.68-.71-1.18-.04-.47.16-.85.53-1.16.11-.09.22-.18.33-.27.04-.03.08-.07.1-.11.03-.06,0-.09-.06-.1-.02,0-.04,0-.06.01-.51.25-.93.57-1.09,1.12-.17.57-.01,1.09.37,1.54.12.14.27.26.43.41-.17.04-.34.08-.52.11-.58.1-1.17.08-1.75.05-.6-.04-1.19-.12-1.76-.28-1.01-.28-1.92-.72-2.66-1.44-.81-.78-1.31-1.74-1.52-2.82-.08-.39-.37.2-.4.39,0-.12,0-1.21,0-1.33,0-.81.09-1.61.38-2.37.15-.41.32-.8.49-1.21.04-.09.07-.19.1-.28,0,0-.02-.01-.03-.02-.25.16-.5.31-.74.47,0,0-.02-.01-.02-.02.07-.1.14-.21.22-.31.35-.42.71-.84,1.06-1.25.32-.37.64-.75.95-1.13.08-.1.19-.06.32-.08.28-.02.84-.11.9-.12-.18.93-.22,1.74.26,2.62.36-.82.75-1.18,1.48-1.72.01.78.22,1.26.62,1.95.45-.86.92-1.09,1.62-1.59.11.8.9,2.07.88,2.16-.01.05,0,.1,0,.16.19-.08,1.64-3.46,2.17-4.57.73-1.54,1.5-3.05,2.36-4.53.35-.6.72-1.19,1.17-1.73.09-.11.18-.21.28-.31.19-.22.36-.45.44-.74.02.03.04.05.05.07.09.16.2.3.36.39.08.04.17.07.26.1.03,0,.08-.01.12-.02-.02-.04-.03-.08-.05-.11-.03-.04-.07-.08-.12-.11-.39-.29-.47-.78-.27-1.22.16-.37.36-.71.59-1.04.31-.44.56-.91.7-1.42.05-.16.07-.32.1-.5.11.13.22.24.31.37.38.51.61,1.09.74,1.7.09.46.09.92.04,1.38,0,.06,0,.12,0,.18,0,.03.03.06.05.07.02,0,.07-.02.08-.04.04-.09.09-.18.12-.27.09-.34.13-.68.08-1.02-.02-.18,0-.21.17-.23.54-.06,1.08-.06,1.62.06.59.13,1.09.41,1.45.89.01.01.02.03.02.06-.04-.02-.09-.04-.13-.06-.37-.17-.75-.31-1.16-.33-.12,0-.25.01-.37.04-.06.01-.09,0-.13-.04-.08-.08-.17-.17-.27-.23-.04-.02-.11,0-.16,0,.02.05.03.11.06.15.08.11.17.22.26.33.2.26.39.53.58.79.2.27.35.56.46.87.02.05.03.1.06.14.02.03.06.06.09.05.03,0,.06-.05.06-.08,0-.1-.01-.21-.03-.31-.01-.09-.04-.18-.06-.29.05,0,.08,0,.11.02.66.17,1.27.44,1.81.83.18.13.33.31.49.47,0,.01-.02.02-.02.04Z"/>
            </g>
          </g>
          <g>
            <g>
              <path class="cls-23" d="M73.02,16.75c-.04-.81-.29-1.57-.74-2.27-.49-.76-1.18-1.32-2.05-1.66h-.02s-.02-.02-.02-.02c-.53-.19-1.1-.32-1.71-.37-.55-.06-1.09-.09-1.62-.11h-.04c-.37,0-.81-.01-1.32-.01s-.95,0-1.32,0h-.04c-.52.02-1.06.06-1.61.11-.61.05-1.18.17-1.71.37-.46.16-.89.39-1.28.67-.13-.19-.27-.36-.42-.52-.48-.48-1.02-.81-1.6-.98-.45-.13-.85-.19-1.22-.19-.13,0-.26,0-.38.02h-.07s-.35.08-.35.08c-.33.06-.68.18-1.08.35-.43.19-.85.45-1.25.79-.24.21-.47.45-.66.71-.41-.39-.89-.7-1.44-.92h-.02s-.02-.02-.02-.02c-.53-.19-1.1-.32-1.71-.37-.55-.06-1.09-.09-1.62-.11h-.04c-.37,0-.81-.01-1.32-.01s-.95,0-1.32,0h-.04c-.52.02-1.06.06-1.61.11-.61.05-1.18.17-1.71.37-.46.16-.89.39-1.28.67-.13-.19-.27-.36-.42-.52-.48-.48-1.02-.81-1.6-.98-.45-.13-.85-.19-1.22-.19-.13,0-.26,0-.38.02h-.07s-.35.08-.35.08c-.33.06-.68.18-1.08.35-.43.19-.85.45-1.25.79-.39.33-.72.74-.98,1.23-.05-.07-.11-.14-.16-.21-.84-1.12-1.89-1.43-2.62-1.5-.16-.02-.33-.03-.49-.03-.32,0-.65.03-.98.1-.56.1-1.05.29-1.48.57h-.02c-.06.05-.11.09-.16.13-.3-.22-.65-.4-1.06-.57-.58-.23-1.2-.38-1.85-.43h-.08s-.26,0-.26,0c-.55,0-1.09.07-1.6.21h-.02c-.56.17-1.07.38-1.49.65-.49.3-.88.69-1.17,1.15-.24.38-.43.86-.58,1.44-.29,1.03-.49,2.39-.59,4.04v.03c-.02.33-.02.67-.02.99,0,1.31.11,2.56.34,3.7v.02s.01.03.01.03c.33,1.43.77,2.47,1.35,3.19.83,1.14,1.89,1.46,2.63,1.52.16.02.33.03.49.03.32,0,.65-.03.98-.1.54-.1,1.03-.29,1.45-.55l.05-.03.04-.03c.09-.06.17-.13.25-.19.26.17.57.33.92.47.58.24,1.21.38,1.87.42.12,0,.25.01.37.01.54,0,1.07-.07,1.57-.22.56-.16,1.06-.37,1.47-.64.12-.07.23-.15.34-.23.49.56,1.2.92,2.02,1h.03s.04,0,.04,0c.33.02.66.03.97.03.54,0,1.07-.03,1.56-.1,1.05-.14,1.93-.53,2.62-1.16.75-.69,1.15-1.68,1.18-2.95v-.02s0-.18,0-.18c0-.66-.04-1.25-.11-1.76-.07-.53-.15-1.02-.25-1.47v-.02c-.1-.42-.16-.87-.19-1.34.21.11.44.19.67.26l.07.02h.08c.17.05.33.07.5.08,0,.03,0,.06,0,.09,0,.45.01.95.04,1.49h0c.05.88.14,1.68.28,2.37v.03s.01.03.01.03c.34,1.41.78,2.44,1.36,3.15.85,1.13,1.9,1.44,2.63,1.5.16.02.32.03.48.03.32,0,.65-.03.98-.1.54-.1,1.03-.29,1.45-.55h.02s.02-.03.02-.03c.48-.32.85-.72,1.08-1.2.15-.31.27-.65.36-1.01.13-.51.2-1.07.2-1.67,0-.16,0-.33-.01-.5v-.05s0-.04,0-.04c-.06-.57-.16-1.16-.31-1.78-.03-.16-.06-.32-.09-.48v-.03c-.09-.42-.16-.84-.21-1.25.08,0,.17,0,.25,0,.27,0,.55-.03.82-.08h.08s.07-.04.07-.04c.19-.05.37-.12.54-.2-.13.46-.26.98-.41,1.56-.21.86-.36,1.6-.42,2.21-.06.6-.1,1.04-.1,1.36,0,.6.07,1.15.22,1.65v.02c.38,1.21,1.34,1.98,2.63,2.11h.03s.04,0,.04,0c.33.02.66.03.97.03.54,0,1.07-.03,1.56-.1,1.05-.14,1.93-.53,2.62-1.16.75-.69,1.15-1.68,1.18-2.95v-.02s0-.18,0-.18c0-.66-.04-1.25-.11-1.76-.07-.53-.15-1.02-.25-1.47v-.02c-.1-.42-.16-.87-.19-1.34.21.11.44.19.67.26l.07.02h.08c.17.05.33.07.5.08,0,.03,0,.06,0,.09,0,.45.01.95.04,1.49h0c.05.88.14,1.68.28,2.37v.03s.01.03.01.03c.34,1.41.78,2.44,1.36,3.15.85,1.13,1.9,1.44,2.63,1.5.16.02.32.03.48.03.32,0,.65-.03.98-.1.54-.1,1.03-.29,1.45-.55h.02s.02-.03.02-.03c.48-.32.85-.72,1.08-1.2.15-.31.27-.65.36-1.01.13-.51.2-1.07.2-1.67,0-.16,0-.33-.01-.5v-.04s0-.04,0-.04c-.06-.57-.16-1.16-.31-1.78-.03-.16-.06-.32-.09-.48v-.03c-.09-.42-.16-.84-.21-1.25.08,0,.17,0,.25,0,.27,0,.55-.03.82-.08h.08s.07-.04.07-.04c.79-.22,1.43-.66,1.91-1.31l.03-.04.03-.04c.43-.65.65-1.38.65-2.17v-.21Z"/>
              <path class="cls-8" d="M72.68,16.77c-.04-.76-.27-1.47-.69-2.12-.46-.7-1.09-1.22-1.89-1.53h-.02s-.02-.01-.02-.01c-.5-.18-1.04-.3-1.62-.35-.54-.06-1.08-.09-1.59-.11h-.03c-.36,0-.8,0-1.31,0s-.95,0-1.31,0h-.03c-.51.02-1.05.06-1.59.11-.58.05-1.12.16-1.62.35-.55.2-1.05.48-1.5.85-.16-.3-.35-.56-.57-.78-.44-.44-.93-.74-1.45-.89-.42-.12-.78-.18-1.13-.18-.12,0-.23,0-.34.02h-.06s-.34.07-.34.07c-.3.06-.63.17-1,.33-.4.17-.79.42-1.16.74-.33.28-.61.62-.84,1.01-.43-.51-.97-.9-1.62-1.16h-.02s-.02-.01-.02-.01c-.5-.18-1.04-.3-1.62-.35-.54-.06-1.08-.09-1.59-.11h-.03c-.36,0-.8,0-1.31,0s-.95,0-1.31,0h-.03c-.51.02-1.05.06-1.59.11-.58.05-1.12.16-1.62.35-.55.2-1.05.48-1.5.85-.16-.3-.35-.56-.57-.78-.44-.44-.93-.74-1.45-.89-.42-.12-.78-.18-1.13-.18-.12,0-.23,0-.34.02h-.06s-.34.07-.34.07c-.3.06-.63.17-1,.33-.4.17-.79.42-1.16.74-.43.36-.77.82-1.03,1.38v.03c-.06.1-.09.2-.13.3-.15-.28-.31-.52-.48-.73-.77-1.03-1.72-1.32-2.38-1.38-.15-.02-.3-.03-.46-.03-.3,0-.6.03-.91.09-.51.1-.97.27-1.35.52h-.02c-.13.09-.25.18-.35.28-.31-.27-.71-.5-1.2-.7-.54-.22-1.13-.35-1.74-.4h-.06s-.24,0-.24,0c-.52,0-1.02.07-1.5.2h-.01c-.53.16-1,.36-1.41.61-.45.28-.81.63-1.07,1.04-.23.36-.4.8-.55,1.36-.28,1.01-.48,2.35-.58,3.98v.03c-.01.33-.02.66-.02.98,0,1.3.11,2.52.33,3.64v.02s0,.02,0,.02c.32,1.38.74,2.39,1.3,3.07.76,1.04,1.72,1.33,2.39,1.39.15.02.3.03.46.03.3,0,.61-.03.91-.09.5-.1.95-.27,1.33-.51l.04-.02.04-.03c.15-.11.3-.23.42-.36.29.22.65.42,1.08.59.55.22,1.14.35,1.76.4.11,0,.23.01.34.01.51,0,1.01-.07,1.47-.2.53-.15,1-.35,1.39-.6.21-.13.4-.28.57-.44.43.66,1.13,1.07,2,1.15h.03s.03,0,.03,0c.32.02.64.03.95.03.53,0,1.03-.03,1.51-.09.98-.13,1.8-.49,2.44-1.08.69-.63,1.05-1.55,1.08-2.73h0v-.19c0-.64-.04-1.22-.11-1.72-.07-.52-.15-1-.25-1.45v-.02c-.13-.55-.2-1.15-.2-1.76v-.21s0-.01,0-.02c.32.25.69.43,1.11.55l.06.02h.06c.25.06.5.09.75.09,0,0,.01,0,.02,0,0,.12,0,.25,0,.39,0,.45.01.94.04,1.47h0c.05.87.14,1.65.27,2.33v.03s.01.03.01.03c.33,1.37.75,2.36,1.3,3.03.77,1.03,1.72,1.32,2.39,1.37.15.02.3.02.45.02.3,0,.61-.03.91-.09.5-.1.95-.27,1.33-.51h.02s.02-.02.02-.02c.43-.28.76-.65.97-1.08.14-.29.26-.61.34-.95.13-.49.19-1.03.19-1.6,0-.16,0-.32-.01-.48v-.04s0-.04,0-.04c-.06-.55-.16-1.14-.3-1.75-.03-.17-.07-.33-.09-.49v-.03c-.12-.56-.2-1.12-.26-1.67.21.04.42.05.63.05.25,0,.5-.02.75-.07h.06s.06-.03.06-.03c.45-.13.85-.33,1.19-.61-.02.06-.04.13-.06.2v.02s0,.02,0,.02c0,.03-.02.06-.02.1-.16.55-.34,1.23-.54,2.02-.21.85-.35,1.58-.41,2.17-.06.59-.09,1.02-.09,1.33,0,.57.07,1.1.2,1.56v.02c.34,1.08,1.19,1.77,2.35,1.88h.03s.03,0,.03,0c.32.02.64.03.95.03.53,0,1.03-.03,1.51-.09.98-.13,1.8-.49,2.44-1.08.69-.63,1.05-1.55,1.08-2.73h0v-.19c0-.64-.04-1.22-.11-1.72-.07-.52-.15-1-.25-1.45v-.02c-.13-.55-.2-1.15-.2-1.76v-.21s0-.01,0-.02c.32.25.69.44,1.11.55l.06.02h.06c.25.06.5.09.75.09,0,0,.01,0,.02,0,0,.12,0,.25,0,.39,0,.45.01.94.04,1.47h0c.05.87.14,1.65.27,2.33v.03s.01.03.01.03c.33,1.37.75,2.36,1.3,3.03.77,1.03,1.73,1.32,2.39,1.37.15.02.3.02.45.02.3,0,.61-.03.91-.09.5-.1.95-.27,1.33-.51h.02s.02-.02.02-.02c.43-.28.76-.65.97-1.08.14-.29.26-.61.34-.95.13-.49.19-1.03.19-1.6,0-.16,0-.32-.01-.48v-.04s0-.04,0-.04c-.06-.55-.16-1.14-.3-1.75-.03-.17-.07-.33-.09-.49v-.03c-.12-.56-.2-1.12-.26-1.67.21.04.42.05.63.05.25,0,.5-.02.75-.07h.06s.06-.03.06-.03c.71-.2,1.29-.6,1.73-1.19l.02-.03.02-.03c.4-.6.6-1.28.6-2v-.2Z"/>
              <path class="cls-14" d="M29.17,28.42c-.1,0-.2,0-.3-.01-.55-.04-1.08-.15-1.56-.35-.51-.21-.89-.44-1.17-.72h-.01s0-.02,0-.02c-.08-.08-.14-.16-.2-.25-.16.32-.41.6-.73.83h-.02s-.02.03-.02.03c-.32.2-.7.34-1.12.42-.27.05-.53.08-.79.08-.13,0-.26,0-.39-.02-.54-.05-1.33-.29-1.96-1.16-.5-.61-.9-1.55-1.2-2.86h0s0-.02,0-.02c-.21-1.09-.32-2.28-.32-3.54,0-.31,0-.64.02-.96h0c.1-1.61.29-2.91.56-3.89.13-.5.29-.9.48-1.21.22-.34.51-.63.88-.86.35-.22.77-.4,1.24-.54h0c.42-.12.87-.18,1.33-.18h.25c.54.05,1.06.17,1.55.36.52.21.91.45,1.19.75h0c.1.11.19.23.25.35.17-.29.4-.53.71-.73h0c.32-.21.7-.35,1.13-.43.27-.05.53-.08.79-.08.13,0,.26,0,.39.02.54.05,1.31.28,1.95,1.14.5.6.89,1.52,1.19,2.82h0s0,.02,0,.02c.21,1.07.32,2.24.32,3.49,0,.31,0,.63-.02.95v.02c-.1,1.56-.29,2.85-.56,3.81-.13.49-.29.88-.48,1.19-.22.34-.51.62-.88.85-.34.21-.76.39-1.23.53-.41.12-.84.18-1.29.18ZM26.21,23.01c.08.4.14.8.18,1.18v.02s0,.02,0,.02c0,.14.01.28.01.41,0,.08,0,.15,0,.23.15-.21.3-.43.45-.67.14-.22.25-.45.33-.68.08-.27.13-.53.15-.8-.2.02-.42.06-.66.12-.17.05-.32.11-.46.17ZM25.83,18.16c-.02.08-.04.16-.06.23.3-.06.62-.11.94-.15-.04-.23-.06-.45-.08-.67v-.02s0-.02,0-.02c0-.15-.01-.31-.01-.46,0-.11,0-.21,0-.32-.15.21-.3.45-.45.7-.14.23-.25.46-.34.71Z"/>
              <path class="cls-14" d="M29.17,28.31c-.09,0-.19,0-.29-.01-.54-.04-1.05-.15-1.52-.34-.49-.2-.86-.43-1.13-.69h0s0-.02,0-.02c-.15-.16-.24-.31-.29-.46-.03.08-.06.15-.1.22-.16.31-.39.58-.7.8h-.02s-.02.02-.02.02c-.31.19-.67.33-1.07.4-.26.05-.52.08-.76.08-.13,0-.25,0-.38-.02-.52-.04-1.27-.28-1.87-1.11-.49-.6-.88-1.52-1.18-2.82h0s0-.02,0-.02c-.21-1.08-.32-2.26-.32-3.52,0-.31,0-.63.02-.95h0c.1-1.6.29-2.89.56-3.86.13-.5.28-.88.47-1.18.21-.33.49-.6.84-.82.34-.21.75-.39,1.21-.52h0c.41-.12.85-.17,1.29-.17h.24c.53.04,1.04.16,1.51.35.5.2.88.44,1.15.72h0c.19.2.29.4.34.57.02-.04.04-.09.06-.13.16-.32.4-.59.72-.8h0c.3-.2.67-.34,1.08-.41.26-.05.52-.08.76-.08.13,0,.25,0,.38.02.52.04,1.25.27,1.87,1.1.49.59.87,1.5,1.17,2.77h0s0,.02,0,.02c.21,1.06.32,2.23.32,3.47,0,.31,0,.63-.02.94h0c-.1,1.57-.29,2.85-.56,3.81-.13.48-.28.86-.47,1.16-.21.32-.49.6-.84.81-.33.21-.74.38-1.2.51-.4.12-.82.17-1.25.17ZM26.07,22.94c.09.43.15.85.2,1.26v.02s0,.02,0,.02c0,.14.01.28.01.41,0,.22,0,.44-.03.64.02-.03.05-.07.07-.1l.15-.21c.16-.22.32-.46.48-.72.14-.23.25-.46.34-.7.09-.32.15-.64.16-.96-.24,0-.52.05-.83.13-.21.07-.39.14-.56.22ZM25.71,18.13c-.04.14-.07.28-.1.41.04,0,.07-.01.11-.02.36-.07.74-.13,1.13-.18-.04-.27-.08-.53-.1-.78v-.02s0-.02,0-.02c0-.15-.01-.3-.01-.46,0-.26.01-.52.04-.76-.03.04-.06.09-.1.14-.04.06-.09.13-.14.2h0s0,.01,0,.01c-.16.22-.31.47-.47.73-.14.23-.26.48-.35.73Z"/>
              <path class="cls-14" d="M35.61,28.37c-.29,0-.6,0-.91-.03h-.02s-.02,0-.02,0c-.9-.09-1.55-.61-1.81-1.47h0c-.12-.43-.18-.9-.18-1.42,0-.28.03-.7.09-1.27.06-.57.2-1.28.4-2.1.2-.79.38-1.46.54-2.01,0-.03.01-.06.02-.09h0s0-.02,0-.02c.15-.49.33-.88.55-1.2.12-.17.24-.31.36-.44-.48-.38-.81-.87-1-1.47-.08-.25-.12-.51-.12-.77,0-.39.09-.79.26-1.19h0c.22-.5.52-.89.88-1.19.33-.28.67-.49,1.01-.64.33-.14.61-.24.87-.29l.31-.06h.03c.09-.01.18-.02.27-.02.28,0,.59.05.95.15.42.12.81.37,1.18.73.37.37.64.88.8,1.52h0c.05.21.07.4.07.59,0,.51-.17,1.02-.51,1.52-.22.32-.51.62-.85.87.14.13.27.27.37.44.2.31.3.7.3,1.18v.21c0,.66.07,1.29.21,1.89h0c.09.44.17.91.24,1.42.07.48.1,1.03.1,1.65v.17h0c-.02,1.04-.33,1.82-.9,2.35-.54.5-1.24.8-2.09.92-.45.06-.93.09-1.43.09Z"/>
              <path class="cls-14" d="M35.61,28.25c-.29,0-.59,0-.9-.03h-.01s-.01,0-.01,0c-.85-.08-1.46-.58-1.71-1.39h0c-.12-.42-.18-.88-.18-1.39,0-.28.03-.69.09-1.26.06-.56.19-1.27.4-2.08.2-.79.38-1.46.54-2.01,0-.03.01-.06.02-.09h0s0-.02,0-.02c.14-.48.32-.86.54-1.17.14-.2.29-.37.44-.51-.03-.02-.05-.04-.08-.06-.47-.37-.8-.85-.98-1.43-.08-.24-.12-.48-.12-.74,0-.37.09-.76.25-1.15h0c.21-.48.5-.86.84-1.15.32-.27.65-.48.98-.63.32-.14.6-.23.84-.28l.31-.06h.03c.08-.01.17-.02.25-.02.27,0,.56.05.91.15.4.11.78.35,1.13.7.35.35.61.85.77,1.47h0c.04.2.06.38.06.57,0,.49-.17.98-.49,1.46-.24.35-.55.66-.94.93.18.14.33.3.46.5.19.3.29.66.29,1.12v.21c0,.67.07,1.31.21,1.91h0c.09.43.17.9.24,1.41.07.47.1,1.02.1,1.64v.17h0c-.02,1-.31,1.76-.86,2.27-.52.48-1.2.78-2.02.89-.44.06-.92.09-1.41.09Z"/>
              <path class="cls-14" d="M46.55,28.42c-.13,0-.26,0-.39-.02-.54-.04-1.32-.27-1.96-1.14-.5-.61-.89-1.53-1.2-2.82v-.02s0-.02,0-.02c-.13-.66-.22-1.42-.26-2.26h0c-.03-.52-.04-1.01-.04-1.45,0-.25,0-.49,0-.71h0c0-.13,0-.23,0-.32-.21.05-.43.07-.65.07-.21,0-.42-.02-.63-.06h-.04s-.04-.02-.04-.02c-.57-.16-1.04-.48-1.4-.96v-.02s-.03-.02-.03-.02c-.3-.47-.46-.99-.46-1.55,0-.24.05-.57.15-1.04.12-.56.45-1.09.97-1.6h.01s.01-.03.01-.03c.41-.36.88-.64,1.4-.82.44-.16.93-.27,1.46-.31.53-.05,1.05-.09,1.55-.11h.02c.36,0,.8,0,1.3,0s.94,0,1.3,0h.02c.5.02,1.02.06,1.56.11.52.04,1.01.15,1.46.31h.01s0,0,0,0c.68.27,1.22.71,1.61,1.3.37.57.57,1.19.6,1.85v.02s0,.15,0,.15c0,.62-.17,1.19-.51,1.7v.02s-.03.02-.03.02c-.36.48-.83.8-1.4.96h-.04s-.04.02-.04.02c-.21.04-.42.06-.63.06-.3,0-.6-.05-.88-.13-.15-.04-.3-.09-.45-.14,0,.03,0,.06.01.1v.03s0,.03,0,.03c.01.14.03.29.04.46.05.63.15,1.29.28,1.95v.02c.03.17.07.34.1.51.14.58.24,1.15.29,1.68v.02s0,.02,0,.02c0,.15.01.31.01.46,0,.53-.06,1.03-.18,1.47-.07.3-.17.58-.3.84-.17.34-.42.62-.77.85h-.01s0,.01,0,.01c-.32.2-.7.34-1.12.42-.27.05-.53.08-.79.08Z"/>
              <path class="cls-14" d="M46.55,28.31c-.13,0-.25,0-.37-.02-.52-.04-1.26-.26-1.87-1.09-.49-.59-.87-1.5-1.18-2.78h0s0-.03,0-.03c-.13-.66-.21-1.41-.26-2.24h0c-.03-.52-.04-1.01-.04-1.44,0-.25,0-.49,0-.71h0c0-.17,0-.31,0-.43v-.05c-.25.07-.51.11-.77.11-.2,0-.4-.02-.6-.06h-.03s-.03-.01-.03-.01c-.55-.15-1-.46-1.33-.92v-.02s-.02-.02-.02-.02c-.29-.45-.44-.95-.44-1.49,0-.23.05-.55.15-1.02.12-.54.43-1.05.94-1.54h.01s.01-.02.01-.02c.4-.35.86-.62,1.36-.8.43-.16.91-.26,1.42-.3.53-.05,1.05-.09,1.55-.11h.02c.36,0,.79,0,1.3,0s.94,0,1.3,0h.02c.5.02,1.02.06,1.55.11.51.04.99.14,1.43.3h0s0,0,0,0c.65.26,1.18.68,1.55,1.26.36.55.55,1.15.58,1.8v.02s0,.15,0,.15c0,.6-.17,1.15-.49,1.64v.02s-.02.02-.02.02c-.34.46-.79.77-1.33.92h-.03s-.03.01-.03.01c-.2.04-.4.06-.6.06-.29,0-.57-.04-.84-.13-.15-.04-.31-.09-.46-.15-.05-.02-.11-.03-.16-.05,0,.09.02.18.03.28v.02s0,.02,0,.02c.01.14.03.29.04.46.06.64.15,1.3.29,1.97h0c.03.18.06.36.1.53.14.58.24,1.14.29,1.67v.02s0,.02,0,.02c0,.15.01.31.01.46,0,.52-.06,1.01-.17,1.45-.07.29-.16.57-.29.82-.16.32-.4.59-.72.8h0s0,.01,0,.01c-.31.19-.67.33-1.07.4-.26.05-.52.08-.76.08Z"/>
              <path class="cls-14" d="M54.76,28.37c-.29,0-.6,0-.91-.03h-.02s-.02,0-.02,0c-.9-.09-1.55-.61-1.81-1.47h0c-.12-.43-.18-.9-.18-1.42,0-.28.03-.7.09-1.27.06-.57.2-1.28.4-2.1.2-.79.38-1.46.54-2.01,0-.03.01-.06.02-.09h0s0-.02,0-.02c.15-.49.33-.88.55-1.2.12-.17.24-.31.36-.44-.48-.38-.81-.87-1-1.47-.08-.24-.12-.51-.12-.77,0-.39.09-.79.26-1.19h0c.22-.5.52-.89.88-1.19.33-.28.67-.49,1.01-.64.33-.14.61-.24.87-.29l.31-.06h.03c.09-.01.18-.02.27-.02.28,0,.59.05.95.15.42.12.81.37,1.18.73.37.37.64.88.8,1.52h0c.05.21.07.4.07.59,0,.51-.17,1.02-.51,1.52-.22.32-.51.62-.85.87.14.13.27.27.37.44.2.31.3.7.3,1.18v.21c0,.66.07,1.29.21,1.89h0c.09.44.17.91.24,1.42.07.48.1,1.03.1,1.65v.17h0c-.02,1.04-.33,1.82-.9,2.35-.54.5-1.24.8-2.09.92-.45.06-.93.09-1.43.09Z"/>
              <path class="cls-14" d="M54.76,28.25c-.29,0-.59,0-.9-.03h-.01s-.01,0-.01,0c-.85-.08-1.46-.58-1.71-1.39h0c-.12-.42-.18-.88-.18-1.39,0-.28.03-.69.09-1.26.06-.56.19-1.27.4-2.08.2-.79.38-1.46.54-2.01,0-.03.01-.06.02-.09h0s0-.02,0-.02c.14-.48.32-.86.54-1.17.14-.2.29-.37.44-.51-.03-.02-.05-.04-.08-.06-.47-.37-.8-.85-.98-1.43-.08-.24-.12-.48-.12-.74,0-.37.09-.76.25-1.15h0c.21-.48.5-.86.84-1.15.32-.27.65-.48.98-.63.32-.14.6-.23.84-.28l.31-.06h.03c.08-.01.17-.02.25-.02.27,0,.56.05.91.15.4.11.78.35,1.13.7.35.35.61.85.77,1.47h0c.04.2.06.38.06.57,0,.49-.17.98-.49,1.46-.24.35-.55.66-.94.93.18.14.33.3.46.5.19.3.29.66.29,1.12v.21c0,.67.07,1.31.21,1.91h0c.09.43.17.9.24,1.41.07.47.1,1.02.1,1.64v.17h0c-.02,1-.31,1.76-.86,2.27-.52.48-1.2.78-2.02.89-.44.06-.92.09-1.41.09Z"/>
              <path class="cls-14" d="M65.7,28.42c-.13,0-.26,0-.39-.02-.54-.04-1.32-.27-1.96-1.14-.5-.61-.89-1.53-1.2-2.82v-.02s0-.02,0-.02c-.13-.66-.22-1.42-.26-2.26h0c-.03-.52-.04-1.01-.04-1.45,0-.25,0-.49,0-.71h0c0-.12,0-.23,0-.32-.21.05-.43.07-.65.07-.21,0-.42-.02-.63-.06h-.04s-.04-.02-.04-.02c-.57-.16-1.05-.48-1.4-.96l-.02-.02v-.02c-.32-.47-.47-.99-.47-1.55,0-.24.05-.57.15-1.04.12-.56.45-1.09.97-1.6h.01s.01-.03.01-.03c.41-.36.88-.64,1.4-.82.44-.16.93-.27,1.46-.31.53-.05,1.05-.09,1.55-.11h.02c.36,0,.8,0,1.3,0s.94,0,1.3,0h.02c.5.02,1.02.06,1.56.11.52.04,1.01.15,1.46.31h0s.01,0,.01,0c.68.27,1.22.71,1.61,1.3.37.57.57,1.19.6,1.85v.02s0,.15,0,.15c0,.62-.17,1.19-.51,1.7v.02s-.03.02-.03.02c-.36.48-.83.8-1.4.96h-.04s-.04.02-.04.02c-.21.04-.42.06-.63.06-.3,0-.6-.05-.88-.13-.15-.04-.3-.09-.45-.14,0,.03,0,.06.01.1v.03s0,.03,0,.03c.01.14.03.29.04.46.05.63.15,1.29.28,1.95v.02c.03.17.07.34.1.51.14.58.24,1.15.29,1.68v.02s0,.02,0,.02c0,.15.01.31.01.46,0,.53-.06,1.03-.18,1.47-.07.3-.17.58-.3.84-.17.34-.42.62-.77.85h-.01s0,.01,0,.01c-.32.2-.7.34-1.12.42-.27.05-.53.08-.79.08Z"/>
              <path class="cls-14" d="M65.7,28.31c-.13,0-.25,0-.37-.02-.52-.04-1.26-.26-1.87-1.09-.49-.59-.87-1.5-1.18-2.78h0s0-.03,0-.03c-.13-.66-.21-1.41-.26-2.24h0c-.03-.52-.04-1.01-.04-1.44,0-.25,0-.49,0-.71h0c0-.17,0-.31,0-.43v-.05c-.25.07-.51.11-.77.11-.2,0-.4-.02-.6-.06h-.03s-.03-.01-.03-.01c-.55-.15-1-.46-1.33-.92v-.02s-.02-.02-.02-.02c-.29-.45-.44-.95-.44-1.49,0-.23.05-.55.15-1.02.12-.54.43-1.05.94-1.54h.01s.01-.02.01-.02c.4-.35.86-.62,1.36-.8.43-.16.91-.26,1.42-.3.53-.05,1.05-.09,1.55-.11h.02c.36,0,.79,0,1.3,0s.94,0,1.3,0h.02c.5.02,1.02.06,1.55.11.51.04.99.14,1.43.3h0s0,0,0,0c.65.26,1.18.68,1.55,1.26.36.55.55,1.15.58,1.8v.02s0,.15,0,.15c0,.6-.17,1.15-.49,1.64v.02s-.02.02-.02.02c-.34.46-.79.77-1.33.92h-.03s-.03.01-.03.01c-.2.04-.4.06-.6.06-.29,0-.57-.04-.84-.13-.15-.04-.31-.09-.46-.15-.05-.02-.11-.03-.16-.05,0,.09.02.18.03.28v.02s0,.02,0,.02c.01.14.03.29.04.46.06.64.15,1.3.29,1.97h0c.03.18.06.36.1.53.14.58.24,1.14.29,1.67v.02s0,.02,0,.02c0,.15.01.31.01.46,0,.52-.06,1.01-.17,1.45-.07.29-.16.57-.29.82-.16.32-.4.59-.72.8h0s0,.01,0,.01c-.31.19-.67.33-1.07.4-.26.05-.52.08-.76.08Z"/>
            </g>
            <g>
              <path class="cls-8" d="M29.51,27.99c-.08,0-.16,0-.24,0-.47-.03-.92-.13-1.32-.29-.41-.17-.72-.35-.93-.56h0c-.15-.16-.22-.33-.22-.5,0-.06.02-.15.05-.28.04-.14.14-.33.33-.59l.15-.21c.16-.23.33-.48.5-.75.16-.26.3-.54.4-.82.13-.44.2-.88.2-1.32,0-.11,0-.22-.01-.33-.02,0-.04,0-.06,0-.12-.02-.27-.03-.44-.03h-.05c-.31,0-.67.05-1.07.16-.4.13-.73.27-1,.43h0s-.06.03-.06.03c.13.56.22,1.1.27,1.61h0s0,0,0,0c0,.13,0,.26,0,.38,0,.52-.06.99-.17,1.4-.05.26-.13.51-.24.72-.11.23-.29.42-.51.58h0s0,0,0,0c-.24.15-.53.26-.86.32-.22.04-.43.06-.64.06-.11,0-.21,0-.31-.02-.57-.05-1.05-.34-1.44-.88-.44-.52-.8-1.4-1.07-2.6h0c-.2-1.05-.31-2.2-.31-3.42,0-.31,0-.62.02-.93.1-1.55.28-2.81.54-3.75.11-.44.25-.78.4-1.03.16-.25.38-.47.66-.63.29-.18.64-.33,1.05-.45.36-.1.73-.15,1.12-.15h.19c.46.04.91.14,1.32.3.41.17.73.36.93.57.15.16.23.34.23.51,0,.04,0,.1-.06.27-.04.14-.15.33-.34.59-.05.07-.1.14-.15.22h0c-.16.24-.33.49-.49.77-.16.27-.3.55-.4.84-.12.41-.19.83-.19,1.25,0,.03,0,.07,0,.1,0,0,.01,0,.02,0,.28-.09.58-.16.89-.22.36-.07.74-.13,1.14-.18.2-.02.38-.04.55-.04.02,0,.03,0,.05,0-.1-.47-.18-.92-.22-1.35h0c0-.15,0-.29,0-.44,0-.48.05-.93.16-1.32.06-.26.14-.49.25-.71.11-.23.29-.42.52-.57.24-.15.53-.26.86-.32.22-.04.43-.06.64-.06.11,0,.21,0,.31.02.56.05,1.05.34,1.44.87.43.51.79,1.37,1.06,2.56h0c.2,1.03.31,2.16.31,3.37,0,.3,0,.61-.02.92-.1,1.52-.28,2.76-.54,3.69-.11.42-.25.76-.4,1-.16.25-.38.46-.66.63-.28.18-.63.33-1.04.44-.34.1-.7.15-1.07.15Z"/>
              <path class="cls-8" d="M36.77,18.5c-.48,0-.92-.15-1.3-.45-.37-.29-.64-.68-.79-1.15-.06-.18-.09-.37-.09-.58,0-.3.07-.61.21-.93.18-.39.41-.71.69-.94.28-.23.56-.41.83-.53.27-.12.51-.2.7-.24l.28-.05h0c.06,0,.12-.01.18-.01.2,0,.45.04.73.12.29.08.58.27.86.54.28.28.49.68.62,1.21.03.15.05.29.05.44,0,.38-.13.76-.4,1.15-.26.39-.64.72-1.13.99-.49.27-.98.42-1.45.43h0s0,0,0,0Z"/>
              <path class="cls-8" d="M35.95,27.94c-.28,0-.57,0-.86-.03h0c-.6-.06-1-.39-1.18-.97-.1-.36-.16-.77-.16-1.23,0-.26.03-.66.09-1.2.06-.54.19-1.22.39-2.01.2-.79.38-1.46.54-2.01,0-.03.01-.06.02-.08h0c.12-.42.28-.76.46-1.01.18-.26.38-.46.58-.6.2-.14.39-.23.57-.28.18-.05.32-.07.45-.07h.15s.2,0,.2,0c.05,0,.1,0,.16,0,.11,0,.25.01.42.03.18.02.38.08.59.18.22.1.39.26.52.48.13.2.2.48.2.82v.21c0,.71.08,1.39.23,2.03.09.41.17.87.23,1.36.06.45.1.97.1,1.56v.16c-.02.84-.25,1.47-.68,1.86-.43.39-.99.63-1.68.73-.41.05-.86.08-1.32.08Z"/>
              <path class="cls-8" d="M46.89,27.99c-.11,0-.21,0-.31-.02-.56-.04-1.05-.33-1.44-.86-.43-.52-.79-1.38-1.07-2.56h0c-.12-.64-.21-1.37-.25-2.18-.03-.51-.04-.98-.04-1.41,0-.25,0-.48,0-.69,0-.18,0-.32,0-.44v-.24c0-.09,0-.18,0-.26h0v-.31s0-.07,0-.13c-.1.06-.2.11-.28.15-.14.07-.29.12-.44.17-.21.07-.43.1-.66.1-.15,0-.31-.02-.48-.05h0s0,0,0,0c-.41-.11-.75-.35-1-.7h0s0,0,0,0c-.23-.36-.35-.76-.35-1.19,0-.19.04-.48.14-.9.09-.43.36-.85.78-1.26h0c.34-.3.73-.53,1.16-.69.38-.14.8-.23,1.26-.27.52-.05,1.03-.09,1.51-.11.36,0,.79,0,1.29,0s.93,0,1.29,0c.49.02,1,.05,1.51.11.46.04.88.13,1.26.27h0c.53.21.96.56,1.26,1.03.3.47.47.98.5,1.52h0v.14c0,.49-.13.94-.4,1.34h0s0,0,0,0c-.26.35-.6.58-1,.7h0s0,0,0,0c-.16.03-.32.05-.48.05-.23,0-.45-.03-.66-.1-.14-.04-.29-.08-.43-.14-.17-.06-.34-.11-.49-.15-.1-.02-.18-.04-.24-.05-.06-.01-.11-.02-.17-.02h0s0,0,0,0c0,0,0,.02-.01.03,0,.01-.01.03-.02.07h0s0,.01,0,.01c-.04.13-.06.29-.06.47,0,.15.02.33.05.51h0s0,0,0,0c.01.14.03.29.04.46.06.66.16,1.34.29,2.03.03.18.07.36.1.54.13.56.23,1.1.28,1.61h0s0,0,0,0c0,.15,0,.29,0,.43,0,.48-.05.92-.16,1.32-.06.26-.14.49-.25.71-.11.23-.29.42-.52.57h0c-.24.15-.53.26-.86.32-.22.04-.43.06-.64.06Z"/>
              <path class="cls-8" d="M55.93,18.5c-.48,0-.92-.15-1.3-.45-.37-.29-.64-.68-.79-1.15-.06-.18-.09-.37-.09-.58,0-.3.07-.61.21-.93.18-.39.41-.71.69-.94.28-.23.56-.41.83-.53.27-.12.51-.2.7-.24l.28-.05h0c.06,0,.12-.01.18-.01.2,0,.45.04.73.12.29.08.58.27.86.54.28.28.49.68.62,1.21.03.15.05.29.05.44,0,.38-.13.76-.4,1.15-.26.39-.64.72-1.13.99-.49.27-.98.42-1.45.43h0s0,0,0,0Z"/>
              <path class="cls-8" d="M55.1,27.94c-.28,0-.57,0-.86-.03h0c-.6-.06-1-.39-1.18-.97-.1-.36-.16-.77-.16-1.23,0-.26.03-.66.09-1.2.06-.54.19-1.22.39-2.01.2-.79.38-1.46.54-2.01,0-.03.01-.06.02-.08h0c.12-.42.28-.76.46-1.01.18-.26.38-.46.58-.6.2-.14.39-.23.57-.28.18-.05.32-.07.45-.07h.15s.2,0,.2,0c.05,0,.1,0,.16,0,.11,0,.25.01.42.03.18.02.38.08.59.18.22.1.39.26.52.48.13.2.2.48.2.82v.21c0,.71.08,1.39.23,2.03.09.41.17.87.23,1.36.06.45.1.97.1,1.56v.16c-.02.84-.25,1.47-.68,1.86-.43.39-.99.63-1.68.73-.41.05-.86.08-1.32.08Z"/>
              <path class="cls-8" d="M66.05,27.99c-.11,0-.21,0-.31-.02-.56-.04-1.05-.33-1.44-.86-.43-.52-.79-1.38-1.07-2.56h0c-.12-.64-.21-1.37-.25-2.18-.03-.51-.04-.99-.04-1.41,0-.24,0-.48,0-.69,0-.18,0-.32,0-.44v-.24c0-.09,0-.18,0-.26h0v-.31s0-.07,0-.13c-.1.06-.2.11-.28.15-.14.07-.29.12-.44.17-.21.07-.43.1-.66.1-.16,0-.31-.02-.48-.05h0s0,0,0,0c-.41-.11-.75-.35-1-.7h0s0,0,0,0c-.23-.36-.35-.76-.35-1.19,0-.19.04-.48.14-.9.09-.43.36-.85.78-1.26h0c.34-.3.73-.53,1.16-.69.38-.14.8-.23,1.26-.27.52-.05,1.03-.09,1.51-.11.36,0,.79,0,1.29,0s.93,0,1.29,0c.49.02,1,.05,1.51.11.46.04.88.13,1.26.27h0c.53.21.96.56,1.26,1.03.3.47.47.98.5,1.52h0v.14c0,.49-.13.94-.4,1.34h0s0,0,0,0c-.26.35-.6.58-1,.7h0s0,0,0,0c-.16.03-.32.05-.48.05-.23,0-.45-.03-.66-.1-.14-.04-.29-.08-.43-.14-.17-.06-.34-.11-.49-.15-.1-.02-.18-.04-.24-.05-.06-.01-.11-.02-.17-.02h0s0,0,0,0c0,0,0,.02-.01.03,0,.01-.01.03-.02.07h0s0,.01,0,.01c-.04.13-.06.29-.06.47,0,.15.02.33.05.51h0s0,0,0,0c.01.14.03.29.04.46.06.66.16,1.34.29,2.03.03.18.07.36.1.54.13.56.23,1.1.28,1.61h0s0,0,0,0c0,.15,0,.29,0,.43,0,.48-.05.92-.16,1.32-.06.26-.14.49-.25.71-.11.23-.29.42-.52.57h0c-.24.15-.53.26-.86.32-.22.04-.43.06-.64.06Z"/>
            </g>
            <path class="cls-20" d="M31.12,14.77c-.37-.5-.82-.78-1.35-.82-.1-.01-.19-.02-.3-.02-.2,0-.4.02-.61.06-.32.06-.59.16-.81.3-.22.14-.38.32-.48.53-.1.21-.18.44-.24.69-.1.39-.15.82-.15,1.29,0,.14,0,.29,0,.43.04.48.13.97.25,1.49-.06,0-.13,0-.2,0-.17,0-.34.01-.54.04-.39.05-.77.11-1.13.18-.31.05-.6.12-.87.21-.06.02-.11.04-.17.06,0-.09,0-.18,0-.27,0-.43.06-.86.19-1.28.11-.3.25-.58.41-.86.17-.28.33-.53.5-.77.05-.08.1-.15.15-.22.18-.25.29-.44.32-.56.04-.12.05-.2.05-.25,0-.15-.07-.29-.2-.44-.19-.2-.49-.38-.89-.54-.4-.16-.82-.26-1.28-.29h-.18c-.38,0-.74.05-1.08.14-.4.11-.73.26-1.01.44-.26.16-.47.36-.62.6-.15.24-.28.57-.39,1-.26.93-.44,2.17-.54,3.72-.01.31-.02.62-.02.93,0,1.22.1,2.35.31,3.39.27,1.19.63,2.05,1.05,2.56.36.51.81.79,1.35.83.1.01.19.02.3.02.2,0,.4-.02.61-.06.31-.06.58-.16.81-.3.21-.15.37-.33.47-.54s.18-.44.23-.7c.11-.4.16-.86.16-1.37,0-.12,0-.24,0-.37-.06-.52-.15-1.06-.28-1.62,0-.02,0-.04,0-.06l.13-.07c.28-.17.63-.31,1.03-.45.41-.11.79-.16,1.11-.16h.05c.17,0,.32.02.45.04.05,0,.11.01.16.02.01.15.02.29.02.44,0,.45-.07.9-.2,1.35-.1.29-.24.57-.41.85-.17.27-.34.53-.5.76l-.15.21c-.18.24-.28.43-.32.55-.03.12-.05.21-.05.25,0,.14.06.28.19.42.2.2.49.37.89.53.4.16.82.26,1.28.29.08,0,.15,0,.23,0,.36,0,.71-.05,1.03-.14.4-.11.73-.26,1.01-.43.26-.16.47-.36.62-.59.15-.23.28-.56.39-.98.26-.92.44-2.14.54-3.66.01-.31.02-.61.02-.92,0-1.2-.1-2.31-.31-3.34-.27-1.18-.62-2.01-1.04-2.51Z"/>
            <path class="cls-20" d="M38.36,13.83c-.26-.26-.53-.44-.8-.51-.27-.08-.5-.12-.69-.12-.06,0-.11,0-.16,0l-.28.05c-.19.04-.41.11-.67.23-.26.12-.53.29-.8.51-.27.23-.49.53-.66.9-.13.31-.2.61-.2.89,0,.19.03.37.09.54.14.45.39.82.75,1.1.36.28.76.42,1.22.42.45-.02.92-.16,1.39-.42.48-.26.84-.58,1.09-.95.25-.37.38-.74.38-1.09,0-.14-.02-.27-.05-.41-.13-.5-.32-.89-.59-1.15Z"/>
            <path class="cls-20" d="M38.54,21.68c-.15-.65-.23-1.34-.23-2.06v-.21c0-.33-.06-.58-.18-.77-.12-.2-.28-.34-.47-.43-.19-.09-.38-.15-.55-.17-.17-.02-.3-.03-.41-.03-.05,0-.1,0-.14,0l-.21.02h-.15c-.11,0-.25.01-.41.06-.17.04-.34.13-.53.26-.19.13-.37.32-.55.57-.18.25-.32.58-.45.98,0,.02-.01.05-.02.08-.16.55-.34,1.22-.54,2.01-.2.79-.33,1.46-.38,2-.06.54-.09.93-.09,1.19,0,.45.05.85.15,1.2.17.54.52.84,1.07.89.29.02.58.03.85.03.46,0,.89-.03,1.3-.08.66-.09,1.2-.32,1.61-.69.41-.37.62-.97.64-1.78v-.16c0-.59-.03-1.1-.1-1.55-.06-.49-.14-.94-.23-1.35Z"/>
            <path class="cls-20" d="M50.07,14.11c-.37-.14-.78-.22-1.23-.26-.52-.05-1.02-.09-1.5-.11-.35,0-.78,0-1.28,0s-.93,0-1.28,0c-.49.02-.99.05-1.5.11-.45.04-.86.12-1.23.26-.41.15-.79.37-1.12.66-.41.39-.66.79-.75,1.2-.09.41-.13.7-.13.88,0,.41.11.79.34,1.13.24.33.56.54.94.65.15.03.3.04.45.04.22,0,.42-.03.62-.1.15-.04.29-.09.43-.16.14-.07.3-.16.49-.28-.03.17-.04.29-.04.36v.3c0,.08,0,.17,0,.27v.24c0,.12,0,.27,0,.45,0,.21,0,.44,0,.69,0,.43.01.9.04,1.41.04.81.13,1.53.25,2.16.28,1.18.63,2.02,1.05,2.52.37.5.82.78,1.35.81.1.01.19.02.3.02.2,0,.4-.02.61-.06.31-.06.58-.16.81-.3.22-.14.38-.32.48-.53.1-.21.18-.44.24-.69.1-.39.15-.82.15-1.29,0-.14,0-.29,0-.43-.05-.5-.14-1.04-.28-1.59-.04-.18-.07-.37-.11-.54-.14-.69-.24-1.38-.3-2.04-.01-.16-.03-.31-.04-.45-.03-.19-.05-.37-.05-.53,0-.19.02-.36.07-.5,0-.04.01-.07.02-.09,0-.02.02-.04.02-.06,0-.02.01-.03.01-.04,0,0,0-.02,0-.02v.02h0s.1,0,.1,0c.06,0,.12.01.18.03.06.01.14.03.24.05.16.04.33.09.51.15.14.05.28.1.42.13.2.07.41.1.62.1.15,0,.3-.01.45-.04.38-.11.7-.32.94-.65.26-.39.38-.81.38-1.28v-.13c-.03-.53-.19-1.02-.48-1.47-.29-.45-.7-.78-1.21-.98Z"/>
            <path class="cls-20" d="M57.52,13.83c-.26-.26-.53-.44-.8-.51-.27-.08-.5-.12-.69-.12-.06,0-.11,0-.16,0l-.28.05c-.19.04-.41.11-.67.23-.26.12-.53.29-.8.51-.27.23-.49.53-.66.9-.13.31-.2.61-.2.89,0,.19.03.37.09.54.14.45.39.82.75,1.1.36.28.76.42,1.22.42.45-.02.92-.16,1.39-.42.48-.26.84-.58,1.09-.95.25-.37.38-.74.38-1.09,0-.14-.02-.27-.05-.41-.13-.5-.32-.89-.59-1.15Z"/>
            <path class="cls-20" d="M57.69,21.68c-.15-.65-.23-1.34-.23-2.06v-.21c0-.33-.06-.58-.18-.77-.12-.2-.28-.34-.47-.43-.19-.09-.38-.15-.55-.17-.17-.02-.3-.03-.41-.03-.05,0-.1,0-.14,0l-.21.02h-.15c-.11,0-.25.01-.41.06-.17.04-.34.13-.53.26-.19.13-.37.32-.55.57-.18.25-.32.58-.45.98,0,.02-.01.05-.02.08-.16.55-.34,1.22-.54,2.01-.2.79-.33,1.46-.38,2-.06.54-.09.93-.09,1.19,0,.45.05.85.15,1.2.17.54.52.84,1.07.89.29.02.58.03.85.03.46,0,.89-.03,1.3-.08.66-.09,1.2-.32,1.61-.69.41-.37.62-.97.64-1.78v-.16c0-.59-.03-1.1-.1-1.55-.06-.49-.14-.94-.23-1.35Z"/>
            <path class="cls-20" d="M70.43,15.09c-.29-.45-.7-.78-1.21-.98-.37-.14-.78-.22-1.23-.26-.52-.05-1.02-.09-1.5-.11-.35,0-.78,0-1.28,0s-.93,0-1.28,0c-.49.02-.99.05-1.5.11-.45.04-.86.12-1.23.26-.41.15-.79.37-1.12.66-.41.39-.66.79-.75,1.2-.09.41-.13.7-.13.88,0,.41.11.79.34,1.13.24.33.56.54.94.65.15.03.3.04.45.04.22,0,.42-.03.62-.1.15-.04.29-.09.43-.16.14-.07.3-.16.49-.28-.03.17-.04.29-.04.36v.3c0,.08,0,.17,0,.27v.24c0,.12,0,.27,0,.45,0,.21,0,.44,0,.69,0,.43.01.9.04,1.41.04.81.13,1.53.25,2.16.28,1.18.63,2.02,1.05,2.52.37.5.82.78,1.35.81.1.01.19.02.3.02.2,0,.4-.02.61-.06.31-.06.58-.16.81-.3.22-.14.38-.32.48-.53.1-.21.18-.44.24-.69.1-.39.15-.82.15-1.29,0-.14,0-.29,0-.43-.05-.5-.14-1.04-.28-1.59-.04-.18-.07-.37-.11-.54-.14-.69-.24-1.38-.3-2.04-.01-.16-.03-.31-.04-.45-.03-.19-.05-.37-.05-.53,0-.19.02-.36.07-.5,0-.04.01-.07.02-.09,0-.02.02-.04.02-.06,0-.02.01-.03.01-.04,0,0,0-.02,0-.02v.02h0s.1,0,.1,0c.06,0,.12.01.18.03.06.01.14.03.24.05.16.04.33.09.51.15.14.05.28.1.42.13.2.07.41.1.62.1.15,0,.3-.01.45-.04.38-.11.7-.32.94-.65.26-.39.38-.81.38-1.28v-.13c-.03-.53-.19-1.02-.48-1.47Z"/>
          </g>
          <path class="cls-14" d="M22.51,39.7s0,.01-.01.02c0,.01-.02.03-.04.06-.02.03-.04.05-.07.08-.02.02-.06.04-.1.05-.04.01-.08.02-.13,0h0s-.05,0-.07-.01c-.02,0-.04-.01-.08-.03-.03-.01-.06-.03-.07-.05-.01-.02-.03-.05-.05-.09-.02-.04-.03-.08-.02-.13s.02-.11.02-.19c.08-.38.21-.77.38-1.17.17-.41.39-.83.65-1.26.26-.44.56-.87.9-1.31.34-.44.73-.87,1.17-1.31.44-.44.92-.85,1.42-1.25.5-.4,1.07-.78,1.68-1.15.62-.36,1.26-.7,1.94-.99.67-.3,1.41-.56,2.2-.78.79-.23,1.61-.4,2.45-.52.78-.12,1.52-.19,2.22-.21.7-.02,1.31,0,1.85.05.54.06,1.04.14,1.51.26.47.12.87.25,1.2.41.34.16.64.33.91.52.27.19.5.37.67.56.17.19.32.37.44.56.12.18.2.35.25.5.05.15.08.28.07.39,0,.26-.05.54-.18.85-.13.3-.34.62-.63.95-.29.33-.64.65-1.05.95-.41.3-.92.58-1.53.84-.61.26-1.27.47-1.98.63-.58.13-1.15.23-1.72.31s-1,.12-1.27.14l-.42.03c-.01.15-.03.35-.05.58-.02.24-.06.59-.13,1.05-.07.46-.13.77-.2.93-.08.19-.16.31-.23.35-.07.04-.21.06-.41.07-.22,0-.39,0-.48-.05-.1-.04-.16-.14-.2-.31-.1-.46-.13-1.34-.09-2.64-1.28,0-2.25-.3-2.91-.89-.17-.15-.25-.29-.23-.4.03-.19.22-.23.57-.11.32.1.7.18,1.14.24.44.06.81.09,1.09.09h.42c.01-1.08.04-1.99.1-2.74.02-.21.07-.41.16-.58.09-.18.21-.33.34-.44.13-.11.25-.2.36-.27.1-.06.2-.12.3-.16.05-.02.1-.03.15-.04.05,0,.12,0,.2.03.08.03.15.09.21.18.06.09.1.24.14.44.04.21.05.47.03.78l-.18,2.74s.13,0,.23,0c.11,0,.38-.03.8-.08.43-.05.92-.13,1.46-.24.85-.17,1.65-.43,2.39-.78.75-.35,1.34-.75,1.78-1.21.44-.45.63-.88.59-1.3-.01-.12-.07-.25-.16-.39-.09-.14-.22-.28-.4-.43-.18-.15-.39-.29-.64-.43-.25-.14-.55-.26-.9-.37-.35-.11-.74-.2-1.15-.28-.41-.08-.89-.12-1.43-.13-.54-.01-1.1,0-1.69.06-.59.05-1.24.15-1.97.31s-1.48.35-2.25.59c-.98.31-1.9.69-2.77,1.16-.87.46-1.61.95-2.22,1.44-.61.5-1.17,1.01-1.68,1.54-.51.53-.93,1.03-1.24,1.5-.31.47-.58.9-.8,1.27-.22.38-.37.67-.46.89l-.13.33Z"/>
          <g>
            <path class="cls-14" d="M46,38.32c-.48-.01-.89-.24-1.22-.68-.34-.44-.51-.96-.52-1.58,0-.31.03-.66.11-1.03.08-.37.17-.63.28-.78.12-.16.26-.29.42-.38.16-.09.31-.13.46-.12.22.01.39.09.5.25.11.15.16.32.15.5,0,.1-.02.37-.05.81-.03.44-.05.8-.06,1.05-.01.26,0,.49.01.7.06.22.19.35.41.39.22.04.45-.02.69-.18.11-.07.22-.17.35-.29.12-.12.25-.27.39-.44.14-.17.25-.32.34-.44.09-.12.21-.28.36-.49.15-.21.24-.34.28-.4.06-.08.14-.13.24-.14s.19,0,.27.06c.08.05.13.13.15.22.02.09,0,.17-.06.25-.2.28-.36.5-.49.67-.13.17-.3.39-.52.65-.22.26-.42.48-.62.67-.2.18-.39.32-.57.43-.39.23-.82.33-1.27.32ZM44.98,31.88c.19-.17.42-.25.69-.25.27,0,.5.09.69.26.19.17.29.37.28.61,0,.24-.1.44-.29.61-.19.17-.42.25-.69.25-.27,0-.5-.09-.69-.26-.19-.17-.29-.37-.28-.61,0-.24.1-.44.29-.61Z"/>
            <path class="cls-14" d="M49.04,30.89c.1-.58.26-.98.47-1.21.21-.23.41-.33.62-.3.2.02.37.16.5.41.13.25.16.61.1,1.07-.44,2.94-.7,5.31-.78,7.1-.01.25-.12.42-.31.51-.19.09-.37.11-.55.06-.29-.09-.45-.34-.5-.74-.09-.62-.06-1.75.06-3.39.13-1.64.26-2.81.39-3.51Z"/>
            <path class="cls-14" d="M52.76,38.35c-.48-.01-.89-.24-1.22-.68-.34-.44-.51-.96-.52-1.58,0-.31.03-.66.11-1.03.08-.37.17-.63.28-.78.12-.16.26-.29.42-.38.16-.09.31-.13.46-.12.22.01.39.09.5.25.11.15.16.32.15.5,0,.1-.02.37-.05.81-.03.44-.05.8-.06,1.05-.01.26,0,.49.01.7.06.22.19.35.41.39.22.04.45-.02.69-.18.11-.07.22-.17.35-.29.12-.12.25-.27.39-.44.14-.17.25-.32.34-.44.09-.12.21-.28.36-.49.15-.21.24-.34.28-.4.06-.08.14-.13.24-.14.1-.02.19,0,.27.06.08.05.13.13.15.22.02.09,0,.17-.06.25-.2.28-.36.5-.49.67-.13.17-.3.39-.52.65-.22.26-.42.48-.62.67-.2.18-.39.32-.57.43-.39.23-.82.33-1.27.32ZM51.74,31.91c.19-.17.42-.25.69-.25.27,0,.5.09.69.26.19.17.29.37.28.61,0,.24-.1.44-.29.61-.19.17-.42.25-.69.25-.27,0-.5-.09-.69-.26-.19-.17-.29-.37-.28-.61,0-.24.1-.44.29-.61Z"/>
            <path class="cls-14" d="M56.62,38.33c-.16-.05-.32-.12-.47-.21-.15-.08-.31-.2-.47-.33-.16-.14-.3-.31-.4-.52-.11-.21-.17-.43-.2-.67-.02-.28,0-.56.06-.83.07-.27.16-.49.27-.66.17-.26.37-.49.59-.68.22-.19.44-.34.65-.43.22-.1.42-.17.6-.21.19-.04.36-.07.54-.07.23,0,.44.04.63.12.19.08.34.18.45.3.11.12.19.24.25.38.05.14.07.27.06.39-.01.13-.06.23-.14.31-.14.14-.28.2-.42.18-.13-.02-.22-.06-.26-.11-.05-.06-.08-.12-.09-.19,0-.07-.03-.11-.07-.13-.14-.07-.36-.04-.66.11-.22.11-.42.31-.6.61-.17.3-.2.59-.08.88.09.23.23.41.41.54.18.12.37.19.58.2.21,0,.42,0,.62-.06.2-.05.39-.12.57-.22.26-.14.55-.39.88-.74.33-.35.63-.7.88-1.04.06-.07.13-.12.23-.13.1-.02.19,0,.27.05s.13.12.15.22c.02.09,0,.18-.06.25-.27.37-.62.77-1.05,1.22-.43.45-.83.79-1.2,1.05-.22.15-.46.27-.72.37-.26.1-.54.16-.87.19-.32.03-.63,0-.93-.11Z"/>
          </g>
          <path class="cls-14" d="M56.62,38.88c.15-.13.32-.19.53-.19.2,0,.38.07.53.2.15.13.22.29.22.47,0,.18-.07.34-.22.47-.15.13-.32.19-.53.19-.2,0-.38-.07-.53-.2-.15-.13-.22-.29-.22-.47,0-.18.07-.34.22-.47Z"/>
        </g>
      </g>
    </g>
  </g>
</svg>